<?xml version="1.0" encoding="utf-8"?>
<!-- Generator: Adobe Illustrator 15.1.0, SVG Export Plug-In . SVG Version: 6.00 Build 0)  -->
<!DOCTYPE svg PUBLIC "-//W3C//DTD SVG 1.1//EN" "http://www.w3.org/Graphics/SVG/1.1/DTD/svg11.dtd">
<svg version="1.1" id="Livello_1" xmlns="http://www.w3.org/2000/svg" xmlns:xlink="http://www.w3.org/1999/xlink" x="0px" y="0px"
	 width="48px" height="48px" viewBox="0 0 48 48" enable-background="new 0 0 48 48" xml:space="preserve">
<g id="surface1">
	<path fill="#2A8AA1" d="M18,4L4,10.625V43c0,0.602,0.398,1,1,1c0.203,0,0.375,0.016,0.375-0.188L18,38l12,6l14-6.625V5
		c0-0.359-0.133-0.641-0.375-0.813C43.5,4.102,43.352,4.023,43.188,4c-0.016,0-0.039,0-0.063,0C43.086,3.992,43.047,4.008,43,4
		h-0.375L30,8L18,4z M18.188,8.375l10.438,3.438L30,12.188v27.438l-10.188-5.25L18,33.625V8.438L18.188,8.375z"/>
</g>
</svg>
