<?xml version="1.0" encoding="utf-8"?>
<!-- Generator: Adobe Illustrator 15.1.0, SVG Export Plug-In . SVG Version: 6.00 Build 0)  -->
<!DOCTYPE svg PUBLIC "-//W3C//DTD SVG 1.1//EN" "http://www.w3.org/Graphics/SVG/1.1/DTD/svg11.dtd">
<svg version="1.1" id="Livello_1" xmlns="http://www.w3.org/2000/svg" xmlns:xlink="http://www.w3.org/1999/xlink" x="0px" y="0px"
	 width="26px" height="26px" viewBox="0 0 26 26" enable-background="new 0 0 26 26" xml:space="preserve">
<g id="surface1">
	<path fill="#2A8AA1" d="M8,0C5.797,0,4,1.797,4,4v7H1c-0.551,0-1,0.449-1,1v6c0,0.551,0.449,1,1,1h3v3c0,2.203,1.797,4,4,4h12
		c2.203,0,4-1.797,4-4V8c0-1.063-0.973-2.07-2.719-3.781c-0.242-0.238-0.504-0.504-0.75-0.75s-0.512-0.477-0.75-0.719
		C18.07,1.004,17.063,0,16,0H8z M8,2h7.281C16.004,2.184,16,3.051,16,3.938V7c0,0.551,0.449,1,1,1h3c0.996,0,2,0.004,2,1v13
		c0,1.105-0.895,2-2,2H8c-1.102,0-2-0.895-2-2v-3h12c0.551,0,1-0.449,1-1v-6c0-0.551-0.449-1-1-1H6V4C6,2.898,6.898,2,8,2z
		 M4.531,11.906c1.16,0,1.844,1.109,1.844,3c0,2.758-1.215,3.156-1.938,3.156c-1.184,0-1.875-1.152-1.875-3.094
		C2.563,13.066,3.309,11.906,4.531,11.906z M8.813,11.906c0.391,0,0.75,0.105,0.938,0.219c0.074,0.047,0.113,0.133,0.094,0.219
		l-0.156,0.781c-0.016,0.066-0.063,0.129-0.125,0.156s-0.129,0.004-0.188-0.031c-0.117-0.074-0.32-0.156-0.594-0.156
		c-0.402,0-0.531,0.281-0.531,0.5c0,0.313,0.105,0.441,0.688,0.813c0.727,0.477,1.094,1.07,1.094,1.781
		c-0.004,1.098-0.797,1.875-1.938,1.875c-0.426,0-0.891-0.125-1.125-0.281c-0.07-0.047-0.109-0.105-0.094-0.188l0.156-0.781
		c0.012-0.066,0.063-0.129,0.125-0.156s0.129-0.004,0.188,0.031c0.184,0.109,0.508,0.188,0.75,0.188
		c0.414,0,0.656-0.219,0.656-0.594c0-0.352-0.219-0.539-0.656-0.844c-0.73-0.465-1.156-1.109-1.156-1.75
		C6.938,12.621,7.703,11.906,8.813,11.906z M11.625,11.969h0.938c0.098,0,0.164,0.063,0.188,0.156l0.563,2.281
		c0.078,0.332,0.148,0.633,0.219,0.938c0.063-0.297,0.109-0.594,0.188-0.938l0.531-2.281c0.02-0.094,0.121-0.156,0.219-0.156h0.969
		c0.109,0,0.18,0.078,0.188,0.188l0.344,5.563c0.008,0.023,0,0.066,0,0.094C15.965,17.93,15.895,18,15.781,18h-0.844
		c-0.109,0-0.184-0.078-0.188-0.188l-0.125-2.188c-0.008-0.109,0.008-0.219,0-0.344c-0.016,0.07-0.047,0.152-0.063,0.219
		l-0.594,2.281c-0.023,0.094-0.094,0.156-0.188,0.156h-0.625c-0.094,0-0.164-0.063-0.188-0.156l-0.563-2.219
		c-0.023-0.094-0.039-0.215-0.063-0.313c-0.008,0.141-0.023,0.277-0.031,0.406l-0.094,2.156C12.211,17.922,12.109,18,12,18h-0.781
		c-0.059,0-0.086-0.02-0.125-0.063s-0.066-0.098-0.063-0.156l0.375-5.625C11.414,12.047,11.516,11.969,11.625,11.969z M4.5,13.094
		c-0.078,0-0.156,0.031-0.219,0.094c-0.242,0.242-0.383,0.922-0.375,1.781c-0.008,0.898,0.133,1.566,0.375,1.813
		c0.063,0.066,0.141,0.094,0.219,0.094c0.348,0,0.563-0.746,0.563-1.938C5.063,13.785,4.848,13.094,4.5,13.094z"/>
</g>
</svg>
