<?xml version="1.0" encoding="utf-8"?>
<!-- Generator: Adobe Illustrator 15.1.0, SVG Export Plug-In . SVG Version: 6.00 Build 0)  -->
<!DOCTYPE svg PUBLIC "-//W3C//DTD SVG 1.1//EN" "http://www.w3.org/Graphics/SVG/1.1/DTD/svg11.dtd">
<svg version="1.1" id="Livello_1" xmlns="http://www.w3.org/2000/svg" xmlns:xlink="http://www.w3.org/1999/xlink" x="0px" y="0px"
	 width="48px" height="48px" viewBox="0 0 48 48" enable-background="new 0 0 48 48" xml:space="preserve">
<g id="surface1">
	<path fill="#2A8AA1" d="M8,4c3.055,0.93,6.109,1.867,9.164,2.805c-0.008,7.539,0.008,15.078-0.008,22.617
		c-2.969,2.625-5.914,5.273-8.875,7.906c7.234-3.797,14.461-7.609,21.688-11.414c-2-0.914-4.016-1.813-6.016-2.727
		c-1.352-2.945-2.719-5.883-4.07-8.82c6.711,2.047,13.414,4.102,20.125,6.156c0,3.281,0,6.555,0,9.836
		C32.375,34.906,24.742,39.453,17.109,44c-3.039-2.125-6.07-4.258-9.109-6.383C8,26.414,8,15.203,8,4z"/>
</g>
</svg>
