<?xml version="1.0" encoding="utf-8"?>
<!-- Generator: Adobe Illustrator 15.1.0, SVG Export Plug-In . SVG Version: 6.00 Build 0)  -->
<!DOCTYPE svg PUBLIC "-//W3C//DTD SVG 1.1//EN" "http://www.w3.org/Graphics/SVG/1.1/DTD/svg11.dtd">
<svg version="1.1" id="Livello_1" xmlns="http://www.w3.org/2000/svg" xmlns:xlink="http://www.w3.org/1999/xlink" x="0px" y="0px"
	 width="50px" height="50px" viewBox="0 0 50 50" enable-background="new 0 0 50 50" xml:space="preserve">
<g id="surface1">
	<path fill="#2A8AA1" d="M36,2c-0.43,0-0.863,0.016-1.281,0.063c-0.113,0.012-0.23,0.047-0.344,0.063
		c-0.305,0.039-0.609,0.094-0.906,0.156c-0.113,0.023-0.199,0.035-0.313,0.063c-0.293,0.07-0.59,0.156-0.875,0.25
		C32.188,2.625,32.094,2.652,32,2.688c-0.301,0.109-0.617,0.242-0.906,0.375c-0.07,0.031-0.117,0.063-0.188,0.094
		C30.598,3.305,30.293,3.453,30,3.625c-0.047,0.027-0.109,0.066-0.156,0.094c-0.313,0.188-0.613,0.379-0.906,0.594
		c-0.023,0.02-0.039,0.043-0.063,0.063c-0.313,0.234-0.617,0.488-0.906,0.75c-0.008,0.008-0.023-0.008-0.031,0
		C27.637,5.398,27.363,5.699,27.094,6C25.188,8.125,24,10.926,24,14c0,4.148,2.137,6.992,4.406,10
		c0.824,1.094,1.703,2.246,2.531,3.531c1.785,2.242,3.434,4.879,4.344,8.375c0.141,0.543,0.137,0.969,0.375,1.156
		c0.109,0.023,0.215,0.031,0.344,0.031s0.234-0.012,0.344-0.031c0.238-0.188,0.234-0.613,0.375-1.156
		c0.91-3.496,2.559-6.133,4.344-8.375c0.828-1.285,1.707-2.441,2.531-3.531c0.141-0.184,0.27-0.379,0.406-0.563
		c0.215-0.285,0.418-0.559,0.625-0.844c0.098-0.133,0.184-0.273,0.281-0.406c0.156-0.223,0.316-0.434,0.469-0.656
		c0.109-0.164,0.207-0.336,0.313-0.5c0.133-0.203,0.285-0.387,0.406-0.594c0.109-0.184,0.211-0.375,0.313-0.563
		c0.109-0.195,0.215-0.395,0.313-0.594c0.102-0.203,0.191-0.418,0.281-0.625c0.086-0.191,0.176-0.398,0.25-0.594
		c0.09-0.23,0.145-0.449,0.219-0.688c0.059-0.188,0.137-0.371,0.188-0.563c0.07-0.281,0.105-0.582,0.156-0.875
		c0.027-0.164,0.074-0.301,0.094-0.469C47.965,15,48,14.504,48,14C48,7.383,42.617,2,36,2z M6.344,6C3.953,6,2,7.953,2,10.344
		v33.313c0,0.227,0.027,0.438,0.063,0.656C2.383,46.387,4.18,48,6.344,48h33.313c0.227,0,0.438-0.027,0.656-0.063
		c1.965-0.305,3.5-1.926,3.656-3.938H44V26.781c-0.418,0.574-0.84,1.176-1.25,1.813l-0.125,0.188
		c-2.027,2.547-3.258,4.895-3.969,7.625c-0.031,0.117-0.043,0.211-0.063,0.313c-0.078,0.406-0.223,1.055-0.688,1.594L42,42.406v1.25
		C42,44.941,40.941,46,39.656,46h-1.25L24.344,31.969l3.594-3.656l3.563,3.594c-0.586-1.035-1.281-2.066-2.125-3.125l-0.125-0.188
		c-0.582-0.902-1.172-1.691-1.75-2.469L7.594,46h-1.25C5.059,46,4,44.941,4,43.656v-1.25l20.469-20.5C23.059,19.672,22,17.184,22,14
		c0-2.973,0.941-5.73,2.531-8H6.344z M12.125,10c1.586,0,3.008,0.605,4.094,1.594L14.5,13.313c-0.645-0.551-1.461-0.875-2.375-0.875
		c-2.035,0-3.688,1.652-3.688,3.688s1.652,3.688,3.688,3.688c1.711,0,2.879-1.023,3.313-2.438h-3.313v-2.344h5.75
		c0.504,2.383-0.406,7.188-5.75,7.188C8.75,22.219,6,19.5,6,16.125S8.75,10,12.125,10z M36,11c1.656,0,3,1.344,3,3s-1.344,3-3,3
		s-3-1.344-3-3S34.344,11,36,11z"/>
</g>
</svg>
