<?xml version="1.0" encoding="utf-8"?>
<!-- Generator: Adobe Illustrator 15.1.0, SVG Export Plug-In  -->
<!DOCTYPE svg PUBLIC "-//W3C//DTD SVG 1.1//EN" "http://www.w3.org/Graphics/SVG/1.1/DTD/svg11.dtd" [
	<!ENTITY ns_flows "http://ns.adobe.com/Flows/1.0/">
]>
<svg version="1.1"
	 xmlns="http://www.w3.org/2000/svg" xmlns:xlink="http://www.w3.org/1999/xlink" xmlns:a="http://ns.adobe.com/AdobeSVGViewerExtensions/3.0/"
	 x="0px" y="0px" width="32px" height="30px" viewBox="-0.128 -0.167 32 30" style="enable-background:new -0.128 -0.167 32 30;"
	 xml:space="preserve">
<defs>
</defs>
<path style="fill:#3C3C3B;" d="M24.6,3.661c-2.305-2.308-5.37-3.578-8.632-3.578c-3.263,0-5.521,1.914-9.172,3.757
	C5.432,4.528,4.521,5.815,3.919,7.173L0,1.962v13.15h11.74l-5.496-4.711C5.898,8.242,7.557,7.138,8.742,5.956
	c1.595-1.599,4.933-2.706,7.191-2.706c2.256,0,4.416,1.467,6.011,3.067c1.597,1.597,2.478,3.717,2.478,5.978
	c0,2.255-0.415,5.274-2.012,6.869c-0.733,0.734-0.733,1.923-0.001,2.658c0.366,0.366,0.345,0,0.826,0
	c0.479,0,0.961-0.185,1.327-0.55c2.308-2.309,3.615-5.716,3.615-8.977C28.177,9.033,26.908,5.965,24.6,3.661z"/>
<path style="fill:#3C3C3B;" d="M31.467,25.405l-5.173-5.172c1.312-2.045,2.081-4.474,2.081-7.083C28.375,5.886,22.489,0,15.227,0
	C7.963,0,2.076,5.886,2.076,13.15c0,7.261,5.887,13.146,13.15,13.146c2.611,0,5.035-0.771,7.083-2.08l5.173,5.172
	c0.367,0.37,0.963,0.37,1.329,0l2.656-2.654C31.835,26.368,31.835,25.769,31.467,25.405z M15.227,22.541
	c-5.18,0-9.394-4.212-9.394-9.391c0-5.18,4.214-9.394,9.394-9.394c5.177,0,9.393,4.213,9.393,9.394
	C24.62,18.329,20.404,22.541,15.227,22.541z"/>
</svg>
