<?xml version="1.0" encoding="utf-8"?>
<!-- Generator: Adobe Illustrator 18.1.1, SVG Export Plug-In . SVG Version: 6.00 Build 0)  -->
<svg xmlns="http://www.w3.org/2000/svg" xmlns:xlink="http://www.w3.org/1999/xlink" version="1.1" x="0px" y="0px" viewBox="0 0 24 24" enable-background="new 0 0 24 24" xml:space="preserve" width="50px" height="50px">
<path d="M13,17h-2v-2h2V17z"/>
<g>
	<path d="M12,4c4.4,0,8,3.6,8,8s-3.6,8-8,8c-4.4,0-8-3.6-8-8S7.6,4,12,4 M12,2C6.5,2,2,6.5,2,12c0,5.5,4.5,10,10,10   c5.5,0,10-4.5,10-10C22,6.5,17.5,2,12,2L12,2z"/>
</g>
<g>
	<path d="M11,14c0-2.6,2-2.1,2-4.2c0-0.4-0.2-1.3-1-1.3c-0.3,0-1,0.1-1,1.5H9c0,0-0.4-3,2.9-3C14.5,7,15,8.9,15,9.8   c0,2.4-2,2.5-2,4.2H11z"/>
</g>
</svg>
