<?xml version="1.0"?>
<svg class="webicon" xmlns="http://www.w3.org/2000/svg" xmlns:xlink="http://www.w3.org/1999/xlink" version="1.1" x="0px" y="0px" width="50px" height="50px" viewBox="0 0 48 48" enable-background="new 0 0 48 48" xml:space="preserve" >
<g>
	<g>
		<path d="M29.625,3.875c-1.531,0-3.094,0.531-4.25,1.688L5.813,25.188c-2.344,2.344-2.453,6.219,0,8.438&#10;&#9;&#9;&#9;c0.023,0.023,0.039,0.039,0.063,0.063l8.5,8.5c2.305,2.305,6.133,2.305,8.438,0l19.625-19.563c2.305-2.305,2.305-6.133,0-8.438&#10;&#9;&#9;&#9;l-8.625-8.625C32.656,4.406,31.156,3.875,29.625,3.875z M29.625,7.75c0.469,0,0.93,0.242,1.375,0.688L39.563,17&#10;&#9;&#9;&#9;c0.891,0.891,0.891,1.922,0,2.813L20,39.375c-0.891,0.891-1.922,0.891-2.813,0L8.5,30.688C7.82,30.094,7.789,28.836,8.625,28&#10;&#9;&#9;&#9;l0.813-0.813l4.875,4.875l2.125-2.125l-4.875-4.875l1.875-1.875l2.875,2.875l2.125-2.125l-2.875-2.875l1.875-1.875l4.875,4.875&#10;&#9;&#9;&#9;l2.125-2.125l-4.875-4.875l1.875-1.875l2.875,2.875l2.125-2.125l-2.875-2.875l1.875-1.875l4.875,4.875l2.125-2.125l-4.875-4.875&#10;&#9;&#9;&#9;l0.625-0.625C28.633,7.992,29.156,7.75,29.625,7.75z"/>
	</g>
</g>
<g>
	<polygon fill="#FFFFFF" points="15.844,45.661 45.141,45.245 45.244,14.489 24.706,23.872 &#9;"/>
</g>
<g>
	<g>
		<g>
			<polygon fill="none" stroke="#000000" stroke-width="2" stroke-miterlimit="10" points="28.047,28.677 43.047,22.677 &#10;&#9;&#9;&#9;&#9;43.047,42.677 23.047,42.677 &#9;&#9;&#9;"/>
		</g>
	</g>
	<circle cx="28.037" cy="28.651" r="2.476"/>
	<path d="M45.658,22.767c0,1.369-1.108,2.477-2.477,2.477c-1.366,0-2.475-1.108-2.475-2.477c0-1.365,1.108-2.476,2.475-2.476&#10;&#9;&#9;C44.55,20.292,45.658,21.402,45.658,22.767z"/>
	<circle cx="23.373" cy="42.551" r="2.476"/>
	<path d="M45.339,42.233c0,1.368-1.109,2.477-2.479,2.477c-1.364,0-2.476-1.108-2.476-2.477c0-1.365,1.111-2.476,2.476-2.476&#10;&#9;&#9;C44.229,39.758,45.339,40.868,45.339,42.233z"/>
</g>
</svg>
