<?xml version="1.0" encoding="utf-8"?>
<!-- Generator: Adobe Illustrator 15.1.0, SVG Export Plug-In  -->
<!DOCTYPE svg PUBLIC "-//W3C//DTD SVG 1.1//EN" "http://www.w3.org/Graphics/SVG/1.1/DTD/svg11.dtd">
<svg class="webicon desktop tool-on-off" version="1.1"
	 xmlns="http://www.w3.org/2000/svg" xmlns:xlink="http://www.w3.org/1999/xlink" xmlns:a="http://ns.adobe.com/AdobeSVGViewerExtensions/3.0/"
	 x="0px" y="0px" width="50px" height="50px" viewBox="-7.935 -4.664 50 50" enable-background="new -7.935 -4.664 50 50"
	 xml:space="preserve">
<defs>
</defs>
<path d="M0,0l24,22.4l-11.6,1L19,38L14.6,40L8.2,25.2L0,33V0"/>
<path d="M36.108,30.351l-5.306-0.816c-0.407-0.102-0.816-0.204-1.326-0.204H28.15c-1.123,0-2.041,0.715-2.041,1.633v3.061
	c0,0-2.856-1.938-3.366-1.938c-1.326,0-1.633,1.428-1.633,1.428l5.102,6.734c0.51,0.815,1.53,1.326,2.551,1.326h4.489
	c2.244,0,4.081-1.837,4.081-4.081v-5.612C37.333,31.269,36.822,30.657,36.108,30.351z"/>
<rect x="26.109" y="22.188" width="2.041" height="11.224"/>
<rect x="29.17" y="21.168" width="2.04" height="11.224"/>
<rect x="32.231" y="22.188" width="2.04" height="11.224"/>
<rect x="35.292" y="24.229" width="2.041" height="11.224"/>
</svg>
