<?xml version="1.0" encoding="utf-8"?>
<!-- Generator: Adobe Illustrator 18.0.0, SVG Export Plug-In . SVG Version: 6.00 Build 0)  -->
<!DOCTYPE svg PUBLIC "-//W3C//DTD SVG 1.0//EN" "http://www.w3.org/TR/2001/REC-SVG-20010904/DTD/svg10.dtd">
<svg class="webicon" xmlns="http://www.w3.org/2000/svg" xmlns:xlink="http://www.w3.org/1999/xlink" version="1.0" x="0px" y="0px" viewBox="0 0 24 24" enable-background="new 0 0 24 24" xml:space="preserve" width="50px" height="50px">
<g>
	<path d="M12,5c3.9,0,7,3.1,7,7s-3.1,7-7,7s-7-3.1-7-7S8.1,5,12,5 M12,3c-5,0-9,4-9,9s4,9,9,9s9-4,9-9S17,3,12,3L12,3z"/>
</g>
<g>
	<circle cx="12" cy="12" r="4"/>
</g>
<line fill="none" stroke-width="2" stroke-linejoin="round" stroke-miterlimit="10" x1="12" y1="1" x2="12" y2="4"/>
<line fill="none" stroke-width="2" stroke-linejoin="round" stroke-miterlimit="10" x1="12" y1="20" x2="12" y2="23"/>
<line fill="none" stroke-width="2" stroke-linejoin="round" stroke-miterlimit="10" x1="23" y1="12" x2="20" y2="12"/>
<line fill="none" stroke-width="2" stroke-linejoin="round" stroke-miterlimit="10" x1="4" y1="12" x2="1" y2="12"/>
</svg>
