<?xml version="1.0" encoding="utf-8"?>
<!-- Generator: Adobe Illustrator 15.1.0, SVG Export Plug-In . SVG Version: 6.00 Build 0)  -->
<!DOCTYPE svg PUBLIC "-//W3C//DTD SVG 1.1//EN" "http://www.w3.org/Graphics/SVG/1.1/DTD/svg11.dtd">
<svg version="1.1" xmlns="http://www.w3.org/2000/svg" xmlns:xlink="http://www.w3.org/1999/xlink" x="0px" y="0px"
	 width="50px" height="50px" viewBox="0 0 50 50" enable-background="new 0 0 50 50" xml:space="preserve">
<path d="M12.5,4.167c-2.295,0-4.167,1.871-4.167,4.166V31.25c0,1.253,0.651,2.49,1.692,3.32L25,45.833L39.975,34.57
	c1.041-0.83,1.691-2.067,1.691-3.32V8.333c0-2.295-1.871-4.166-4.166-4.166H12.5z M16.667,16.667v10.416h16.667V16.667H16.667z"/>
<g id="surface1">
	<path fill="#FFFFFF" d="M25.208,10.333c-6.283,0-11.375,5.092-11.375,11.375c0,6.282,5.092,11.375,11.375,11.374
		c6.283,0,11.376-5.092,11.376-11.374C36.584,15.425,31.491,10.333,25.208,10.333z M26.952,27.396l-3.465-0.001V20.57l3.465,0
		V27.396z M26.952,18.295l-3.465,0v-2.274h3.465V18.295z"/>
</g>
</svg>
