<?xml version="1.0" encoding="utf-8"?>
<!-- Generator: Adobe Illustrator 18.0.0, SVG Export Plug-In . SVG Version: 6.00 Build 0)  -->
<!DOCTYPE svg PUBLIC "-//W3C//DTD SVG 1.0//EN" "http://www.w3.org/TR/2001/REC-SVG-20010904/DTD/svg10.dtd">
<svg xmlns="http://www.w3.org/2000/svg" xmlns:xlink="http://www.w3.org/1999/xlink" version="1.0" x="0px" y="0px" viewBox="0 0 24 24" enable-background="new 0 0 24 24" xml:space="preserve" width="50px" height="50px">
<g>
	<path d="M11,11.8L2.6,7.9c-0.8-0.4-0.8-1.5,0-1.9L11,2.2c0.6-0.3,1.4-0.3,2,0l8.3,3.8c0.8,0.4,0.8,1.5,0,1.9L13,11.8   C12.4,12.1,11.6,12.1,11,11.8z"/>
</g>
<g>
	<path d="M12,9c0.1,0,0.1,0,0.2,0l6.4,3l-6.4,3c-0.1,0-0.1,0-0.2,0s-0.1,0-0.2,0l-6.4-3l6.4-3C11.9,9,11.9,9,12,9 M12,7   c-0.3,0-0.7,0.1-1,0.2l-8.3,3.8c-0.8,0.4-0.8,1.5,0,1.9l8.3,3.8c0.3,0.1,0.7,0.2,1,0.2s0.7-0.1,1-0.2l8.3-3.8   c0.8-0.4,0.8-1.5,0-1.9L13,7.2C12.7,7.1,12.3,7,12,7L12,7z"/>
</g>
<path d="M21.4,16.1L16.9,14l-2.4,1.1l4.1,1.9l-6.4,3c-0.1,0-0.1,0-0.2,0s-0.1,0-0.2,0l-6.4-3l4.1-1.9L7.1,14l-4.5,2.1  c-0.8,0.4-0.8,1.5,0,1.9l8.3,3.8c0.3,0.1,0.7,0.2,1,0.2s0.7-0.1,1-0.2l8.3-3.8C22.2,17.6,22.2,16.4,21.4,16.1z"/>
</svg>
