<?xml version="1.0" encoding="utf-8"?>
<!-- Generator: Adobe Illustrator 17.0.0, SVG Export Plug-In . SVG Version: 6.00 Build 0)  -->
<!DOCTYPE svg PUBLIC "-//W3C//DTD SVG 1.1//EN" "http://www.w3.org/Graphics/SVG/1.1/DTD/svg11.dtd">
<svg class="webicon" xmlns="http://www.w3.org/2000/svg" xmlns:xlink="http://www.w3.org/1999/xlink" version="1.1" x="0px" y="0px" width="50px" height="50px" viewBox="0 0 26 26" enable-background="new 0 0 26 26" xml:space="preserve">

<path d="M21.266,4.207c-0.244-0.24-0.494-0.484-0.74-0.732c-0.248-0.246-0.492-0.496-0.732-0.74  C18.082,0.988,17.062,0,16,0H8C5.795,0,4,1.795,4,4v7.2h2V4c0-1.103,0.897-2,2-2l7.289-0.004C16.01,2.18,16,3.066,16,3.953V7  c0,0.551,0.449,1,1,1h3c0.998,0,2,0.005,2,1v13c0,1.104-0.896,2-2,2H8c-1.103,0-2-0.896-2-2v-3.2H4V22c0,2.205,1.795,4,4,4h12  c2.205,0,4-1.795,4-4V8C24,6.938,23.012,5.918,21.266,4.207z"/>
<g>
	<path d="M4.485,13.085c-0.077,0-0.142,0.03-0.206,0.094c-0.242,0.244-0.388,0.929-0.382,1.787   c-0.007,0.899,0.135,1.579,0.378,1.824c0.064,0.065,0.13,0.095,0.21,0.095c0.349,0,0.562-0.741,0.562-1.933   C5.047,13.8,4.831,13.085,4.485,13.085z"/>
	<path d="M18,11H1c-0.551,0-1,0.449-1,1v6c0,0.551,0.449,1,1,1h17c0.551,0,1-0.449,1-1v-6C19,11.449,18.551,11,18,11   z M4.451,18.077H4.443c-1.182,0-1.888-1.159-1.888-3.101c0-1.902,0.759-3.084,1.98-3.084c1.161,0,1.855,1.128,1.855,3.017   C6.389,17.666,5.175,18.077,4.451,18.077z M8.104,18.06c-0.424,0-0.901-0.113-1.136-0.268c-0.07-0.047-0.104-0.13-0.088-0.213   l0.151-0.769c0.013-0.066,0.057-0.122,0.119-0.15c0.062-0.028,0.133-0.023,0.191,0.012c0.183,0.11,0.519,0.196,0.763,0.196   c0.416,0,0.645-0.205,0.645-0.579c0-0.35-0.208-0.555-0.646-0.858c-0.729-0.466-1.151-1.103-1.151-1.743   c0-1.065,0.745-1.78,1.855-1.78c0.391,0,0.755,0.116,0.944,0.231c0.075,0.046,0.114,0.133,0.096,0.219l-0.159,0.769   c-0.014,0.066-0.06,0.122-0.122,0.149c-0.062,0.028-0.134,0.021-0.192-0.015c-0.116-0.073-0.31-0.16-0.583-0.16   c-0.403,0-0.545,0.258-0.545,0.478c0,0.311,0.126,0.458,0.707,0.828c0.725,0.478,1.091,1.079,1.091,1.789   C10.042,17.294,9.245,18.06,8.104,18.06z M15.767,18.01c-0.003,0-0.007,0-0.01,0h-0.811c-0.11,0-0.202-0.087-0.207-0.197   l-0.109-2.174c-0.006-0.109-0.011-0.227-0.017-0.352c-0.017,0.069-0.034,0.139-0.05,0.207l-0.587,2.293   c-0.023,0.092-0.106,0.156-0.201,0.156h-0.609c-0.095,0-0.178-0.065-0.202-0.158l-0.553-2.233c-0.024-0.093-0.049-0.19-0.073-0.289   c-0.007,0.139-0.014,0.273-0.02,0.4l-0.1,2.148c-0.006,0.111-0.096,0.198-0.207,0.198h-0.777c-0.058,0-0.113-0.024-0.152-0.066   c-0.039-0.042-0.059-0.098-0.055-0.156l0.376-5.636c0.007-0.109,0.097-0.194,0.207-0.194h0.945c0.096,0,0.18,0.066,0.202,0.16   l0.543,2.283c0.08,0.333,0.156,0.645,0.225,0.95c0.061-0.297,0.13-0.607,0.207-0.949l0.528-2.283   c0.021-0.094,0.105-0.161,0.202-0.161h0.962c0.11,0,0.201,0.086,0.208,0.195l0.331,5.571c0.009,0.024,0.015,0.049,0.015,0.077   C15.974,17.917,15.881,18.01,15.767,18.01z"/>
</g>
</svg>
