<?xml version="1.0"?>
<svg class="webicon" xmlns="http://www.w3.org/2000/svg" xmlns:xlink="http://www.w3.org/1999/xlink" version="1.1" x="0px" y="0px" width="50px" height="50px" viewBox="0 0 500 500" enable-background="new 0 0 500 500" xml:space="preserve" >
<rect x="53.292" y="48.104" fill="#F7F7F7" width="324.218" height="334.709"/>
<g>
	<polygon fill="#666666" points="407.459,93.802 376.209,93.802 376.209,62.552 344.959,62.552 344.959,31.302 407.459,31.302 &#9;"/>
	<polygon fill="#666666" points="63.708,93.802 32.458,93.802 32.458,31.302 94.958,31.302 94.958,62.552 63.708,62.552 &#9;"/>
	<polygon fill="#666666" points="407.459,343.802 376.209,343.802 376.209,375.052 344.959,375.052 344.959,406.302 &#10;&#9;&#9;407.459,406.302 &#9;"/>
	<polygon fill="#666666" points="63.708,343.802 32.458,343.802 32.458,406.302 94.958,406.302 94.958,375.052 63.708,375.052 &#9;"/>
	<rect x="32.458" y="135.469" fill="#666666" width="31.25" height="62.5"/>
	<rect x="32.458" y="239.635" fill="#666666" width="31.25" height="62.5"/>
	<rect x="376.209" y="135.469" fill="#666666" width="31.25" height="62.5"/>
	<rect x="376.209" y="239.635" fill="#666666" width="31.25" height="62.5"/>
	<rect x="240.792" y="31.302" fill="#666666" width="62.5" height="31.25"/>
	<rect x="136.625" y="31.302" fill="#666666" width="62.5" height="31.25"/>
	<rect x="240.792" y="375.052" fill="#666666" width="62.5" height="31.25"/>
	<rect x="136.625" y="375.052" fill="#666666" width="62.5" height="31.25"/>
</g>
<g>
	<polygon fill="#E3F2FD" points="492.917,-533.271 492.917,-659.135 417.615,-596.198 &#9;"/>
	<path fill="#E3F2FD" d="M611.271-547.792c0,38.739-31.208,69.927-69.927,69.927h-16.146v-43.021h16.146&#10;&#9;&#9;c15.052,0,26.886-11.844,26.886-26.906c0-15.052-11.834-26.896-26.886-26.896h-64.552v-43.031h64.552&#10;&#9;&#9;C580.063-617.719,611.271-586.521,611.271-547.792z"/>
</g>
<path  d="M219.042,68.552c-82.475,0-149.334,66.859-149.334,149.334c0,82.474,66.859,149.333,149.334,149.333&#10;&#9;c36.747,0,69.986-13.32,96-35.334l10.666,10.666v18.668l134.001,134l36.666-36.668l-133.999-134h-18.668l-10.666-10.666&#10;&#9;c22.014-26.014,35.334-59.252,35.334-96C368.376,135.411,301.517,68.552,219.042,68.552z M219.042,111.219&#10;&#9;c58.816,0,106.666,47.851,106.666,106.667c0,58.816-47.85,106.666-106.666,106.666s-106.666-47.85-106.666-106.666&#10;&#9;C112.376,159.069,160.226,111.219,219.042,111.219z"/>
</svg>
