<?xml version="1.0" encoding="utf-8"?>
<!-- Generator: Adobe Illustrator 15.1.0, SVG Export Plug-In  -->
<!DOCTYPE svg PUBLIC "-//W3C//DTD SVG 1.1//EN" "http://www.w3.org/Graphics/SVG/1.1/DTD/svg11.dtd" [
	<!ENTITY ns_flows "http://ns.adobe.com/Flows/1.0/">
]>
<svg version="1.1"
	 xmlns="http://www.w3.org/2000/svg" xmlns:xlink="http://www.w3.org/1999/xlink" xmlns:a="http://ns.adobe.com/AdobeSVGViewerExtensions/3.0/"
	 x="0px" y="0px" width="32px" height="32px" viewBox="-0.176 -0.175 32 32" style="enable-background:new -0.176 -0.175 32 32;"
	 xml:space="preserve">
<defs>
</defs>
<path style="fill:#3C3C3B;" d="M28.682,5.935h-2.968v-0.99c0-1.636-1.332-2.966-2.968-2.966h-3.137C19.199,0.828,18.102,0,16.813,0
	h-1.979c-1.289,0-2.389,0.828-2.797,1.979H8.901c-1.636,0-2.967,1.33-2.967,2.966v6.924H2.968C1.331,11.869,0,13.199,0,14.836v8.903
	c0,0.922,0.427,1.784,1.15,2.343l5.155,4.859l0.121,0.118l0.139,0.093c0.489,0.324,1.059,0.498,1.646,0.498h15.526
	c4.36,0,7.911-3.552,7.911-7.911V8.901C31.648,7.266,30.313,5.935,28.682,5.935z M29.668,23.739c0,3.275-2.657,5.932-5.931,5.932
	H8.211c-0.195,0-0.387-0.055-0.548-0.164l-5.246-4.945c-0.274-0.185-0.439-0.497-0.439-0.822v-8.903c0-0.547,0.442-0.99,0.99-0.99
	h2.966v6.924c0,0.546,0.441,0.989,0.989,0.989c0.546,0,0.99-0.443,0.99-0.989V4.945c0-0.546,0.442-0.988,0.988-0.988h2.968v12.858
	c0,0.546,0.441,0.988,0.988,0.988c0.546,0,0.989-0.442,0.989-0.988V2.968c0-0.547,0.442-0.989,0.988-0.989h1.979
	c0.547,0,0.988,0.442,0.988,0.989v13.847c0,0.546,0.442,0.988,0.99,0.988c0.546,0,0.987-0.442,0.987-0.988V3.957h2.968
	c0.545,0,0.991,0.442,0.991,0.988v13.848c0,0.545,0.438,0.988,0.985,0.988c0.546,0,0.991-0.443,0.991-0.988V7.913h2.968
	c0.544,0,0.986,0.442,0.986,0.989V23.739z"/>
</svg>
