<?xml version="1.0" encoding="utf-8"?>
<!-- Generator: Adobe Illustrator 15.1.0, SVG Export Plug-In  -->
<!DOCTYPE svg PUBLIC "-//W3C//DTD SVG 1.1//EN" "http://www.w3.org/Graphics/SVG/1.1/DTD/svg11.dtd" [
	<!ENTITY ns_flows "http://ns.adobe.com/Flows/1.0/">
]>
<svg version="1.1"
	 xmlns="http://www.w3.org/2000/svg" xmlns:xlink="http://www.w3.org/1999/xlink" xmlns:a="http://ns.adobe.com/AdobeSVGViewerExtensions/3.0/"
	 x="0px" y="0px" width="32px" height="32px" viewBox="0 -0.144 32 32" style="enable-background:new 0 -0.144 32 32;"
	 xml:space="preserve">
<defs>
</defs>
<rect x="1.5" y="3.356" style="fill:none;stroke:#3C3C3B;stroke-width:3;stroke-miterlimit:10;" width="29" height="22"/>
<polygon style="fill:#3C3C3B;" points="16.209,8.031 12.193,8.031 12.193,12.048 8.177,12.048 8.177,16.064 12.193,16.064 
	12.193,20.082 16.209,20.082 16.209,16.064 20.225,16.064 20.225,12.048 16.209,12.048 "/>
<path style="fill:#3C3C3B;" d="M31.562,27.158l-5.529-5.53c1.4-2.186,2.226-4.781,2.226-7.57C28.258,6.292,21.968,0,14.201,0
	C6.439,0,0.144,6.292,0.144,14.057c0,7.761,6.296,14.056,14.058,14.056c2.791,0,5.385-0.824,7.572-2.227l5.531,5.531
	c0.386,0.393,1.026,0.393,1.418,0l2.839-2.837C31.955,28.19,31.955,27.549,31.562,27.158z M14.201,24.097
	c-5.534,0-10.041-4.506-10.041-10.04c0-5.536,4.507-10.042,10.041-10.042c5.538,0,10.04,4.505,10.04,10.042
	C24.241,19.591,19.739,24.097,14.201,24.097z"/>
</svg>
