<?xml version="1.0" encoding="utf-8"?>
<!-- Generator: Adobe Illustrator 15.1.0, SVG Export Plug-In  -->
<!DOCTYPE svg PUBLIC "-//W3C//DTD SVG 1.1//EN" "http://www.w3.org/Graphics/SVG/1.1/DTD/svg11.dtd" [
	<!ENTITY ns_flows "http://ns.adobe.com/Flows/1.0/">
]>
<svg version="1.1"
	 xmlns="http://www.w3.org/2000/svg" xmlns:xlink="http://www.w3.org/1999/xlink" xmlns:a="http://ns.adobe.com/AdobeSVGViewerExtensions/3.0/"
	 x="0px" y="0px" width="32px" height="30px" viewBox="-0.128 -0.167 32 30" style="enable-background:new -0.128 -0.167 32 30;"
	 xml:space="preserve">
<defs>
</defs>
<path style="fill:#3C3C3B;" d="M7.144,3.661c2.305-2.308,5.37-3.578,8.632-3.578s5.521,1.914,9.171,3.757
	c1.364,0.688,2.275,1.974,2.877,3.332l3.919-5.21v13.15h-11.74l5.496-4.711c0.347-2.159-1.313-3.263-2.497-4.445
	c-1.595-1.599-4.933-2.706-7.191-2.706c-2.256,0-4.416,1.467-6.011,3.067c-1.597,1.597-2.478,3.717-2.478,5.978
	c0,2.255,0.415,5.274,2.012,6.869c0.733,0.734,0.733,1.923,0.001,2.658c-0.366,0.366-0.345,0-0.826,0
	c-0.479,0-0.961-0.185-1.327-0.55c-2.308-2.309-3.615-5.716-3.615-8.977C3.566,9.033,4.836,5.965,7.144,3.661z"/>
<path style="fill:#3C3C3B;" d="M0.276,26.734l2.656,2.654c0.366,0.37,0.962,0.37,1.329,0l5.173-5.172
	c2.048,1.31,4.472,2.08,7.083,2.08c7.263,0,13.15-5.886,13.15-13.146C29.667,5.886,23.78,0,16.517,0
	C9.255,0,3.368,5.886,3.368,13.15c0,2.609,0.77,5.038,2.081,7.083l-5.173,5.172C-0.092,25.769-0.092,26.368,0.276,26.734z
	 M7.124,13.15c0-5.18,4.216-9.394,9.393-9.394c5.179,0,9.393,4.213,9.393,9.394c0,5.179-4.214,9.391-9.393,9.391
	C11.34,22.541,7.124,18.329,7.124,13.15z"/>
</svg>
