<svg xmlns="http://www.w3.org/2000/svg" xmlns:xlink="http://www.w3.org/1999/xlink"><defs><symbol id="icon-mactionaddwmslayer" viewBox="0 0 24 24"><path d="M6.966 13.81c0 6.713-5.423 12.156-12.113 12.156-6.69 0-12.112-5.443-12.112-12.157 0-6.715 5.424-12.157 12.113-12.157 6.69 0 12.113 5.442 12.113 12.156z" fill="#aec7e2" stroke="#2e4e72" stroke-width="1.341" transform="matrix(.9422 0 0 .81552 16.85 -.76)"/><g fill="#2e4e72" stroke="#fff" stroke-width="2.295"><path d="M346.725 131.376l-3.377 4.5-2.25 2.252-4.5 2.475-.677 2.026s-1.8 1.8-1.574 2.926c.226 1.126.226 3.15.226 3.15s-3.15 2.927-4.502 3.827c-1.35.9-3.152 2.926-3.152 2.926s-1.125 1.35-1.8 1.8c-.675.45-1.8 1.8-2.7 3.15-.902 1.352-1.802 2.25-2.252 2.926-.45.675-1.8 2.25-2.476 4.727-.675 2.477-2.476 5.402-2.476 5.402l-.45 1.125c.225 3.827.224 4.502.675 5.853.45 1.35.9.9.45 3.826-.45 2.924-.45 4.05-.9 5.4-.45 1.35-1.802 3.826-2.25 4.953-.452 1.125.9 3.15.9 3.15s.675 2.927.224 3.602c-.45.676.225 2.026.225 2.026s2.7 1.576 3.6 2.477c.9.9 2.477 2.25 2.702 2.926.226.676 2.026 3.827 2.25 4.502.226.675 2.027 3.15 2.477 3.826.45.677 2.7 3.153 2.7 3.153s2.926 2.25 3.602 3.15c.675.9 2.7 1.35 3.375 2.025.676.675 2.25.45 3.15 1.126.902.675 2.702-.45 3.603 0 .9.45 3.377-.45 4.052-.9.675-.45 2.25-2.025 3.376-1.35 1.125.673 1.8 0 2.7.224.9.225 2.25-.9 3.15-.9.902 0 3.152-.9 3.827-.9.676 0 2.927-1.352 3.828-1.352.9 0 2.025-.898 3.15-.45 1.125.45.675-.898 2.7-.224 2.027.674 2.702 0 3.377.674.676.676 1.577.002 2.252.902.675.9 1.8 1.574 2.025 2.475.224.9 1.575 1.802 1.575 1.802l1.35.224s1.803-1.35 2.252-.45c.45.9 2.476.676 2.476.676l2.025 2.25.676.9s1.352 3.602 1.126 4.952c-.225 1.35-.225 4.276-.9 4.95-.675.677-1.125 3.603-1.125 3.603s-.9.9 1.126 2.702 3.377 3.376 4.052 4.275c.676.9 2.477 3.378 2.7 4.953.226 1.575.676 2.475 1.577 4.5.9 2.027 2.025 2.252 2.25 4.504.226 2.25.675 2.25.45 3.825-.225 1.575-.9 1.8-.225 2.925.675 1.126 1.574 3.152 1.35 3.827-.224.675-.675 3.6-.675 3.6l-.45 1.352-2.025 3.828-1.35 2.024c-.45 1.575-1.35 3.15-1.126 5.402.224 2.25-1.125 2.25.675 4.5 1.8 2.252 2.7 4.728 3.825 6.754 1.126 2.025 1.8 4.05 2.025 5.4.226 1.352 1.126 1.803 1.576 3.603.45 1.8.675 2.7.675 3.826s-.225 4.053.227 4.728c.45.675.675 2.702.9 3.602.225.9-.676 1.126.675 2.702 1.35 1.575 2.25 2.475 3.15 3.6.9 1.127.676.676 1.352 2.252.675 1.575 1.575 2.477 1.8 3.826.226 1.35.45 4.726 1.126 6.302.675 1.576 1.575 3.152 1.575 3.152s2.477 1.575 3.377 1.35c.9-.225 2.7-2.25 4.052-1.575 1.35.674 2.476 0 3.6 0 1.126 0 2.252-1.352 3.378-1.352 1.125 0 2.7-1.8 3.602-1.35.9.45 2.024-.452 3.15-1.577 1.126-1.123 1.8-2.023 3.826-3.824 2.026-1.8 1.8-1.802 3.15-2.927 1.352-1.127 2.703-3.603 4.278-4.053 1.575-.45 2.025-2.024 2.475-3.15.45-1.126.675-1.8 1.35-2.702.677-.9.226.228 1.352-2.7 1.126-2.927 2.478-4.05 3.603-4.727 1.125-.675 1.8-2.025 2.475-2.25.675-.227 1.8.674 1.35-1.352-.448-2.025 0-4.95-.448-5.626-.45-.677-1.127 1.574-.9-1.803.226-3.375 2.7-6.752 2.7-6.752s3.376-4.276 4.502-4.95c1.126-.676 1.35-1.35 2.927-2.252 1.574-.9 4.95-3.15 4.95-4.276s1.352-4.052 1.352-4.728c0-.676 0-1.35-.45-5.178-.45-3.825.45-2.926-.9-6.527-1.35-3.6-1.577-8.103-2.476-9.228-.9-1.126-.45-4.053-.45-4.952 0-.9 1.576-3.15 2.25-4.05.676-.902 3.602-4.504 3.602-4.504s4.5-5.175 6.077-7.65c1.575-2.477 3.15-4.727 4.275-5.627 1.126-.9 3.827-2.928 5.402-5.178 1.576-2.25 4.727-6.526 4.953-7.203.224-.674 2.024-2.925 2.024-2.925s2.476-2.927 2.927-4.502c.45-1.576 2.7-10.354 2.25-9.904-.448.452-3.15.9-4.05 1.126-.9.226 1.35 1.125-5.178.676-6.526-.45-9.902.675-9.902.675-2.027-.45-3.602 1.8-4.278-1.35-.675-3.15-1.126-4.952-2.475-7.203-1.35-2.25-2.252-3.15-4.276-6.078-2.024-2.925-1.8-1.576-3.602-3.825-1.8-2.25-2.25-1.576-3.376-4.5-1.125-2.927-2.025-1.8-3.376-5.853-1.35-4.053-2.25-4.503-2.926-6.753-.676-2.25-1.575-2.927-2.026-4.952-.45-2.026-5.626-12.38-6.302-13.055-.676-.674-1.8-4.277-1.576-3.6.226.674 3.377 2.925 3.377 2.925s1.8-.676 2.476-.676c.674 0 3.375 2.477 3.375 3.376 0 .9 4.73 5.178 5.853 8.33 1.125 3.15 2.478 5.4 2.7 6.3.224.9 2.477 4.503 3.378 5.854.9 1.35 3.825 4.05 4.275 5.402.45 1.35 4.73 5.852 4.73 8.778s2.023 6.752 2.25 7.652c.225.9 4.275 2.027 4.275 2.027l5.403-1.35s8.102-5.18 9.003-5.18c.9 0 8.105-3.375 8.105-3.375s2.925-2.7 4.95-4.275c2.026-1.576 4.277-4.5 4.728-5.853.45-1.35 1.35-1.575 3.15-3.602 1.8-2.026 4.277-4.05 2.702-5.402-1.576-1.35-2.477-.9-4.727-3.15-2.25-2.25-2.026-1.8-3.602-4.728-1.576-2.925.225-6.302-3.152-2.925-3.375 3.376-2.025 4.276-5.402 4.953-3.375.674-4.727 2.925-6.302.674-1.575-2.25-3.15-.9-4.052-4.277-.9-3.376-1.576-3.602-1.8-4.95-.224-1.352 0-1.352-1.8-4.73-1.8-3.375-.45-8.552.674-5.626 1.126 2.925 2.926 3.375 5.853 5.4 2.925 2.026 4.277 3.603 6.977 3.828 2.7.224 4.952 0 5.402.45.45.45.9-.225 2.026.224 1.126.45 1.574-.674 2.025 1.125.45 1.8 2.926 2.026 4.05 3.15 1.127 1.126 1.127.677 4.054 1.126 2.926.45 6.978.45 6.978.45l4.275-.225 4.952.45s3.603 2.025 4.502 2.025c.9 0 1.125 2.477 3.376 3.827 2.25 1.35 2.7 1.575 4.05 3.15 1.354 1.577 1.127 2.252 2.927 3.827 1.802 1.577 4.73-.224 5.18-.898.447-.677 2.698-1.802 2.25 0-.45 1.8 2.25 1.123 1.574 5.4-.675 4.276-1.126 3.15 0 6.078 1.125 2.926 6.077 11.93 6.303 14.63.226 2.7 1.575 1.8 1.8 4.278.226 2.475 1.575 3.375 1.575 5.176 0 1.8 1.577 2.25 1.8 3.602.228 1.35 2.703.224 3.378 0 .676-.226 3.826-3.152 3.826-3.152s1.353-.45 1.126-2.7c-.226-2.25 0-1.8 0-5.177 0-3.376-1.35-3.376-.675-6.75.675-3.377 2.475-5.404 2.926-6.98.45-1.574 2.25-4.275 3.15-4.5.9-.226 5.853-2.7 6.98-4.278 1.124-1.575 2.925-3.376 4.726-5.176 1.8-1.8 4.95-4.05 5.626-3.375.675.675.45.45 1.576.45 1.125 0 3.15.9 4.726 1.126 1.576.226 4.728 4.052 5.403 6.078.676 2.026.226 1.575 2.702 4.502 2.476 2.925 4.727 1.124 4.727 4.726s0 3.376 1.125 4.727c1.125 1.35 2.475-2.476 3.825-2.025 1.35.45 1.575-.45 2.7 3.15 1.125 3.603 1.8 3.603 2.027 7.204.224 3.6-.226.225-.226 3.15 0 2.927-.225 3.152.227 5.852.45 2.703 2.023 3.603 1.8 4.053 0 0 1.35-3.826.9-6.528-.45-2.7 0-6.527 1.125-7.652 1.125-1.127 2.252-2.25 3.15.675.902 2.925 1.352.675 3.377 4.05 2.026 3.378 3.826 2.7 4.05 4.277.226 1.576 1.354 1.802 2.927 3.15 1.576 1.352 2.926-.223 4.727-1.574 1.802-1.35 6.752-6.303 6.98-8.33.223-2.024 2.25-1.575-1.353-6.75-3.6-5.177-3.6-6.978-7.427-10.13-3.824-3.15-6.076-3.375-3.15-7.427 2.927-4.053 4.278-6.753 6.078-5.627 1.802 1.125 4.95.9 4.95 5.402 0 4.5-.9 9.453 2.252 4.05 3.15-5.4 4.728-8.552 3.826-7.65-.9.9 2.026-1.8 2.026-1.8s.226-2.027 4.053-2.927c3.825-.902 4.95-1.35 6.302-2.026 1.35-.676 5.176-5.178 5.85-7.203.676-2.027 2.477-5.628 2.027-7.203-.45-1.577-2.702-9.228-3.152-9.004-.45.226-.224.226-3.15-2.925-2.927-3.15-4.952-5.402-5.402-6.753-.45-1.35-1.576-1.576-.226-3.376 1.352-1.8 2.027-1.576 2.252-3.152.223-1.575 2.023-2.926-1.353-1.8-3.375 1.125-.9.45-3.826.226-2.925-.226-10.577 1.575-6.75-3.15 3.825-4.728 4.95-7.653 5.625-7.653.677 0 4.053-3.826 4.277-.225.226 3.6 1.575 2.7 1.8 4.95.227 2.252 4.728-2.474 4.728-2.474s1.575.45 2.7 1.576c1.126 1.125 1.126 4.727 1.126 4.727s-.9-1.126 1.576.675c2.477 1.802 5.176.9 5.176 4.727 0 3.826 0 4.052 1.576 4.952 1.577.9 3.15.45 4.503-.675 1.35-1.125 3.6-5.177 3.6-5.177s.225-1.576-3.376-3.827c-3.6-2.25-5.85-3.825-7.2-4.95-1.352-1.126-.9-4.502.448-5.854 1.353-1.35 2.026-2.026 1.576-3.826-.45-1.802.676-3.152 4.052-2.927 3.376.227 4.05-.223 4.05-.223s.678.45.678-.9 4.275-7.654 3.15-7.654c-1.126 0 .227-1.575-.45-4.05-.676-2.478 2.25-6.303-.225-8.104-2.477-1.802-3.153-2.703-4.728-5.403-1.575-2.702-1.352-3.15-7.203-3.827-5.853-.675-8.554 1.35-9.905-.45-1.35-1.8-2.025 2.7-2.925-2.7-.9-5.403 1.35-9.005 1.35-9.005s3.602-2.25 4.5-3.826c.9-1.577 4.502-2.252 7.43-1.126 2.927 1.125 7.202.9 10.805 1.577 3.6.675 3.376 2.926 5.177 0 1.8-2.927 0-4.276 1.35-5.852 1.352-1.576 2.926-4.052 4.05-2.477 1.126 1.578 3.38 3.152 5.18 1.126 1.8-2.025 2.476-2.25 2.476-2.25l.898.9s2.026-1.126 2.026.9 2.027 4.277.9 5.852c-1.126 1.577-2.7 1.35-2.7 5.177 0 3.828 0 3.152 2.475 6.304 2.477 3.15 4.052.448 4.502 3.825.45 3.376.898 2.702 3.376 4.952 2.476 2.25 2.024 2.25 3.826 3.6 1.8 1.352 2.702 2.703 2.702.452 0-2.252.225-3.377 0-5.403-.227-2.025 1.8-3.602.448-6.978-1.35-3.377-.224-3.152-2.925-5.628-2.702-2.475-4.503.45-5.4-3.15-.902-3.602 4.274-5.178 5.626-5.628 1.35-.45 3.374-3.15 3.824-1.35.45 1.8-3.375 8.328 3.153 1.35 6.526-6.977 3.6-4.05 3.6-4.05s3.377-.45 4.052 0c.674.45 2.478-2.027 1.8-1.8-.675.225-7.2-3.603-7.2-3.603l-4.73-2.7s1.578-1.125 2.703-.9c1.126.226 1.352-2.25 2.478-2.476 1.125-.225 8.777 1.577 10.354 2.477 1.575.9 7.2 1.126 6.525.676-.675-.45-4.275-3.15-4.5-4.052-.225-.9-8.104-2.7-10.58-2.476-2.476.224-4.725.9-6.75.224-2.028-.675-4.953-2.476-6.53-2.476-1.574 0-21.38-3.826-22.28-3.6-.9.224-2.253 4.5-2.928 3.825-.675-.674-1.8-.675-4.953-1.575-3.148-.9-7.426-1.576-13.054-2.025-5.626-.45-9.45.45-11.027-1.35s-4.952-1.126-8.78-1.352c-3.825-.224-8.327 0-10.353 0s-6.75-.224-7.877-.45c-1.126-.226-2.476-1.8-3.826-2.025-1.352-.226-1.127-.675-3.827-1.125-2.7-.45-2.476-3.376-3.376-.9-.9 2.476-.45 1.8-1.8 2.7-1.35.9-2.7 2.7-3.602 2.7-.9 0-4.5.226-5.177-.224-.675-.45-1.8-.9-4.05-.9-2.252 0-2.252.224-5.178-.226s-5.177-.226-7.878-1.575c-2.7-1.35-2.7-2.25-4.952-2.026-2.25.226-2.25-.45-5.402-.45-3.15 0-6.976 1.8-9.003 2.026-2.024.225-6.526-.226-8.102-.9-1.577-.676-2.026-2.25-7.88-1.577-5.85.676-9.227.676-8.102-1.125 1.126-1.8 2.476-3.6 3.15-3.825.677-.225 2.25-1.35 1.125-1.8-1.124-.45-2.25-1.125-4.95-1.35-2.702-.226-2.478.9-6.528.45-4.05-.45 2.25-1.576-6.076-1.35-8.328.225-10.354.9-11.254.9-.9 0-2.027-1.8-4.277.9s-5.404 4.275-9.904 4.5c-4.502.226-4.728-.45-9.003 1.125-4.277 1.575-6.98-.45-6.078 3.15.898 3.602 2.025 4.953 2.025 5.628 0 .675-2.026 5.177-4.5 2.476-2.48-2.7-6.98-13.28-4.954-6.077 2.026 7.202 6.527 9.68 2.252 10.804-4.276 1.126-3.828-.45-4.503-.9-.675-.45 0-3.6-.226-5.402-.226-1.8-.675-2.926-1.575-3.826-.9-.9-.677-2.25-2.477-2.7-1.8-.45-.225-1.352-3.15-1.352-2.927 0-5.402-1.8-4.727 2.25.674 4.052 1.35 1.352 3.15 5.178 1.8 3.826 5.176 1.125 2.7 3.826-2.475 2.7-9.002 1.8-10.578.676-1.576-1.126-1.125.45-4.053-1.576-2.926-2.026-2.024-3.602-5.4-2.026-3.376 1.576-4.502 4.502-5.853 3.376-1.35-1.126-4.5 1.575-5.627.226-1.126-1.35-5.628-1.35-6.527 0-.9 1.35-3.602 1.125-7.428 2.926-3.826 1.8-2.702.224-7.428 4.05-4.728 3.827-7.43 6.978-9.003 4.502-1.577-2.475-10.13-6.752-6.754-7.428 3.377-.675 4.952-2.025 6.753-.45 1.8 1.575 4.727 1.126 5.175 0 .45-1.126 2.477-2.25-.225-3.6-2.7-1.352-2.926-.452-7.202-2.027-4.277-1.576 0-1.125-5.853-2.026-5.852-.9-8.33-1.35-9.904-1.8-1.573-.45-3.825 0-6.075-.225-2.252-.225-3.826-.675-5.853-.45-2.025.225-3.15-.225-5.852 1.8-2.702 2.027-4.728 2.927-6.528 4.502-1.8 1.575-6.526 4.727-7.877 5.853-1.35 1.125-6.078 4.726-6.528 6.077-.45 1.35.45 2.476-1.35 3.376-1.802.9-3.602.9-4.953 1.125-1.35.225 0-2.026-1.35.225-1.35 2.25-.9 10.354.224 9.228 1.125-1.126.45-4.726 5.402-1.35s8.104 2.926 7.878 6.077c-.225 3.15 3.376 2.926 3.826 3.602.45.674 2.7-.9 2.7-.9s4.953-3.152 4.953-4.727c0-1.576 3.15-5.177 3.15-5.177s-2.25-1.125-2.25-3.376c0-2.25.676-2.927 1.125-5.178.45-2.25-2.476 0 4.277-4.278 6.75-4.276 7.2-1.35 7.2-1.35s.9.9-.225 2.25c-1.125 1.352-3.15 4.954-3.6 5.403-.452.45 2.025 4.052 3.15 4.052s3.376-.9 4.727-.676c1.35.227 3.6-.673 4.276-.223.676.45 2.25 1.8 1.125 2.926-1.125 1.125-3.602 2.475-5.4 2.026-1.803-.45-4.504-3.603-2.928.9 1.576 4.5-.225 5.626-1.576 5.4-1.35-.224-4.277-2.474-3.827.902.45 3.375-2.925 5.626-3.6 5.626-.677 0-2.026-.225-2.026-.225s-2.027-.226-3.15-.226c-1.127 0-3.378 1.125-4.053 2.026-.676.9-1.576.226-2.7.226-1.126 0 0-1.352-2.252-1.802-2.25-.45-3.6-.9-4.95 0-1.352.9-3.377 1.35-4.278.675-.9-.675.45-2.252-1.35-1.35-1.8.9-3.152 3.376-3.827 3.602-.675.224 2.026 0-.675.224-2.7.225-3.826.9-5.177 1.35-1.35.45.45 3.15-2.026 4.05-2.477.9-.675-1.124-3.152.9-2.476 2.028-2.927 3.828-3.826 4.053-.9.226-.675.675-2.7.9-2.027.225-1.8.45-2.928.675-1.125.225.226.676-2.25.225-2.477-.45-4.277.45-3.827 1.35.45.9 8.778 3.377 2.476 3.152-6.302-.225-4.276.9-2.926 1.8 1.35.9 2.025 1.8 2.7 2.026.677.226 1.8 2.928 1.8 2.928s1.802-.226.677 1.35.45 2.026-.676 4.052c-1.125 2.026-1.125.675-2.025 1.125-.9.45-2.25 2.026-4.728.675-2.476-1.35-4.275-2.026-7.202-2.25-2.926-.226-.9-.675-2.926.9-2.026 1.576-2.476 3.376-2.25 5.4.225 2.026.45 4.728-.226 6.08-.674 1.35-.674 2.7-.225 4.726.45 2.025 1.802 2.927 1.802 2.927s3.15.45 3.826.675c.675.225 2.026-.45 3.826.674 1.8 1.126 3.6 1.577 4.726.226 1.125-1.35 5.627-2.926 6.98-4.276 1.35-1.35 2.25-1.8 1.574-3.15-.675-1.352 1.35-4.728 2.476-5.403 1.125-.676 3.6-1.352 3.6-1.352l2.702-4.05s2.25-2.478 3.376-2.252c1.125.225 7.427 2.477 6.978-.45-.45-2.926.45-3.826 1.125-2.7.675 1.124 2.476.674 2.476.674s.9-.45 1.575.226c.675.674 1.575 3.602 2.926 4.276 1.35.676 2.476 1.35 3.377 1.8.9.45 1.802 0 3.603 1.576 1.8 1.576 3.6 2.477 3.825 3.15.227.676 1.802 2.252 1.802 2.252s1.575.45 1.125 1.35c-.45.9-2.7 3.603-3.826 4.052-1.127.45-4.052-.45-2.927.45 1.124.9 2.7 2.026 3.376 1.35.675-.675 4.95-5.177 4.95-5.177s-.225.225 0-1.126c.226-1.35 0-2.926 1.126-2.25 1.125.675 1.8 1.575 2.25.675.45-.9.9-.45-.225-1.125-1.125-.676-3.825-4.502-5.176-4.727-1.35-.226-4.728-2.477-4.728-2.477s-.674-.675-2.25-2.475-2.025-1.35-2.477-2.926c-.45-1.575-1.802-3.6.675-3.15 2.477.45 4.05 2.024 6.302 3.375 2.25 1.35 1.802 1.8 3.827 3.15 2.025 1.35 2.252 2.702 3.826 2.477 1.575-.225 3.377.9 3.377 2.926 0 2.026.45 4.276.9 4.727.45.45 1.8 1.35 2.25 2.25.45.9 1.35 3.152 2.025 4.052.676.9 1.35 1.576 2.026 2.702.675 1.125.9-.226 1.575.225.676.45 1.576.223 1.576-.677s.223-2.476.223-2.476 3.153-.9 2.253-1.35c-.9-.45-3.603-3.152-3.377-4.052.224-.9 0-2.7 1.123-2.475 1.126.224 2.252 2.25 4.728.45 2.477-1.802 5.403-2.702 4.502 0-.9 2.7.227 3.15 0 6.076-.224 2.927.902 2.026 2.478 3.602 1.575 1.576 2.7 1.802 3.825 2.25 1.126.452 2.926.227 4.728.452 1.8.225 2.926-.676 4.502-.225 1.574.45 5.176-.226 5.852.225.676.45 3.377-.9 3.6.675.226 1.576 1.127-.225.452 3.376-.676 3.602-1.577 6.078-1.577 6.078-2.476 4.727-3.376 5.853-4.502 6.078-1.123.225-1.8.9-3.824.675-2.026-.225-4.502 0-7.428-.674-2.926-.676-8.33.675-10.58-.676-2.25-1.35-5.4-.225-6.753-1.8-1.35-1.576-3.6-1.35-4.5-2.25-.9-.9-1.35-3.376-1.35.225 0 3.602-2.027 3.826-2.477 5.627-.45 1.8.674.9-1.802.675-2.476-.226-3.15 1.125-6.752-1.575s-5.402-2.7-7.202-3.827c-1.802-1.126-3.602 2.025-5.402-1.575-1.8-3.602-4.277-.676-4.502-3.602-.225-2.927 0-2.7.225-4.5.227-1.802 2.7-3.377 1.576-4.052-1.127-.675-.227-1.8-1.802-1.125-1.576.676-3.826.9-5.627 1.576-1.8.676 4.052 0-4.726.676-8.778.675-11.255 1.575-11.255 1.575s-.676-.45-1.802.45c-1.125.9-2.7 2.25-4.276 1.576-1.575-.676-2.476-.45-3.826-.225s-2.25-1.125-3.826 0c-1.576 1.124-3.376 1.575-4.052 1.124-.677-.456-1.803-2.256-1.803-2.256z" transform="matrix(.026 0 0 .04 1.763 2.654)"/><path d="M497.305 279.48c-.675 2.476-3.15 6.076-3.15 6.076l-4.504 2.25s-1.572 1.352-2.474 1.577c-.9.224-3.15 1.35-3.15 1.35s-2.026-.45-1.352 1.575c.675 2.026.9 4.503.675 5.177-.225.676-.225 2.027-.225 3.828 0 1.8-.675 4.05-1.8 4.5-1.126.45-2.252.9-2.027 2.477.226 1.576.226 6.302.226 6.302l2.927 4.502s.9-.675 2.702-.675c1.8 0 3.6-1.575 3.6-1.575s2.028.448 1.8-2.026c-.224-2.478.903-5.403.676-6.08-.224-.674 2.027-3.6 2.027-4.275 0-.676 2.25-3.825 2.25-4.952 0-1.125 1.576-2.926 1.8-4.275.226-1.352.45-4.502.9-5.402.452-.9.677-1.8.677-2.7v-2.702zM673.544 309.866c-.675.9-1.125 10.58-1.575 11.704-.45 1.125-1.352 6.978-.9 8.327.45 1.352 1.124 6.303.675 7.88-.45 1.574.225 6.526-.902 6.3-1.124-.225-1.573.227-1.573.9 0 .677 1.573 2.026 1.573 2.026s2.703 0 3.828-.225c1.126-.225 3.377-1.35 5.178-1.35 1.8 0 2.927-1.352 4.5-1.352 1.577 0 4.954-1.124 5.854-.675.9.45 2.25-2.7 3.826-2.024 1.576.675 4.953-1.576 6.528-1.576 1.574 0 2.25-2.477 4.052-2.025 1.8.45 5.177-.9 6.753-.227 1.574.677 4.052-2.25 5.177 0 1.126 2.252 4.503 3.152 4.503 4.277s-.228 3.602-.228 3.602l2.702-.226s4.275-2.7 4.952-2.7c.675 0 2.25-2.25 2.25-1.124 0 1.124-1.35 3.602-1.8 4.726-.45 1.126.45 2.477.45 2.477s2.252 1.124 1.35 3.15c-.9 2.025.225 1.576 0 3.15-.225 1.576 0 .9.9 1.8s2.478 2.48 3.827 2.252c1.352-.226 1.8-1.575 2.926-.9 1.124.675 3.374.225 4.05 1.126.677.9-4.276 3.15 4.277-.675 8.553-3.828 9.45-4.728 10.577-6.08 1.13-1.35 2.48-2.7 3.377-3.6.902-.9.228-.675 2.927-2.7 2.7-2.026 2.7-1.126 5.18-4.953 2.475-3.825 4.274-5.176 4.726-5.852.45-.676 1.35-.9 1.575-3.603.225-2.7 2.025-5.176 2.025-6.076 0-.9.675-2.25.45-3.827-.225-1.576.9-3.825-.45-6.076-1.35-2.252.675-3.15-1.35-4.053-2.027-.9-3.377-.45-3.827-2.025-.45-1.577-2.252-1.352-2.927-5.628-.676-4.276-3.377-4.728-3.377-4.728s-2.7-1.125-2.026-1.574c.677-.45.9-3.603.677-4.503-.226-.9-.226-2.926-.9-4.275-.675-1.352-1.126-3.15-1.8-4.728-.676-1.575-1.8-2.026-2.252-3.826-.45-1.8-1.126-2.477-1.35-2.926-.227-.45-.678-2.7-1.126-.226-.45 2.476-1.352 7.202-1.352 7.202s-1.8 3.828-2.476 4.953c-.675 1.125-1.35 4.052-2.475 3.826-1.126-.225-1.803 1.127-2.7.9-.902-.226-2.252.226-2.927-.45-.675-.675-2.476-2.475-3.377-2.7-.9-.225-1.576-2.025-2.252-2.025-.677 0-1.8-1.576-1.575-2.476.224-.9.45-2.925.675-3.826.224-.9 1.576-2.927 1.576-2.927s0-1.35-1.126-1.35c-1.125 0-1.35 0-3.827-.225-2.474-.226-3.148-.45-4.05-.45-.9 0 .9-.45-1.576.225-2.475.677-3.6 2.477-5.177 4.053-1.573 1.575-.224 1.124-1.573 1.575-1.353.45-1.126-1.126-2.027 1.35-.9 2.477.45 3.15-.227 3.602-.675.45-5.4-1.575-5.4-1.575s1.125-.226.224-1.35c-.9-1.127-1.8-2.7-3.15-2.026-1.352.674-2.478 1.125-3.376 2.25-.9 1.125-.9 2.025-1.576 2.925-.675.9-2.475.9-2.7 1.8-.226.902-.226 3.152-.9 3.377-.675.226-.9-.898-1.575-1.124-.675-.225-.45-2.026-.9-.9-.45 1.125-.9.9-1.575 2.7-.677 1.8-.9 3.377-1.576 3.602-.675.226 0 .45-2.027 1.576-2.025 1.125-2.476 1.125-5.4 2.476-2.926 1.35-2.25 1.35-4.277 1.575-2.025.226-2.477.9-3.827 1.126-1.352.225-2.25.45-3.602 1.8-1.35 1.35-2.475 1.8-3.375 2.026-.9.225-1.806 1.126-1.806 1.126zM686.823 220.958c-.9 1.352-3.825 5.402-4.95 5.628-1.126.224-2.252 1.35-3.152 1.125-.9-.225-2.925 0-3.6 2.927-.675 2.926-1.8 4.502-2.478 4.276-.675-.225 1.125 4.276-2.7 2.477-3.825-1.8-2.475 1.576-2.926 2.477-.45.9.675 3.376.9 4.276.227.9.9 2.476 1.8 3.825.9 1.35 1.576 2.926 3.152 2.478 1.576-.452 6.526 0 6.526 0s1.803.675 2.927.675c1.126 0 1.352-.45 2.026-.45.674 0 2.025-2.25 1.8-2.475-.224-.227-.898-.9.45-2.252 1.352-1.35 2.927-1.8 3.153-3.376.224-1.575-.45-1.575.224-2.477.675-.9 2.25-.673 1.8-1.575-.45-.9.45-.675-.45-2.477-.9-1.8-2.026-2.476-1.126-4.727.9-2.25 1.803-2.7 1.577-4.05-.226-1.352 1.125-1.8-.45-3.377-1.575-1.574-2.25-2.025-3.377-2.477l-1.125-.448zM730.94 243.467c.9-.225 4.05-2.476 4.277 1.576.225 4.05.448 2.925 1.8 5.176 1.35 2.25 2.25 2.927 3.825 1.8 1.575-1.126 3.376-1.126 3.826-3.15.45-2.026.45-2.026 1.8-2.026 1.354 0 1.802-.225 2.48.677.674.9 1.122 0 4.05 1.575 2.926 1.576 5.4 1.124 7.204 2.7 1.8 1.576 2.7 1.353 5.176 2.252 2.476.9 1.35-.45 3.6 2.026 2.253 2.475 1.354 3.15 2.477 4.276 1.125 1.124 2.027-.902 1.576 1.8-.45 2.7-3.6 0 1.127 3.824 4.726 3.828 5.402 4.504 6.976 5.628 1.577 1.126 2.702 2.477 1.353 2.477-1.353 0-5.628 0-6.077-.677-.452-.675-2.477-1.126-3.83-2.7-1.348-1.575-4.274-2.702-4.948-4.052-.677-1.35-1.577-1.8-2.702-1.8s-2.25 1.35-3.827 2.926c-1.576 1.575-.898-.9-2.926-.225-2.027.677-4.275-.225-5.402-1.125-1.126-.9-.9-2.25-2.7-1.575-1.802.675-2.925.225-2.25-1.125.675-1.352.224-3.152.224-3.152s.676-2.25-.9-2.7c-1.575-.45-1.575-2.025-3.15-2.477-1.578-.45-4.052-1.575-4.052-1.575s-.225 0-.9-.224c-.676-.226-.676-.226-2.477-.675-1.8-.45-3.15 0-4.05-1.125-.902-1.125-.45-2.7-.45-2.7s3.6.45 0-2.252l-3.602-2.7s.448-.226.224-.676c-.227-.452 2.247 0 2.247 0zM629.653 224.784s1.125 1.127 2.926.9c1.8-.225 3.148 3.602 4.276 4.952 1.124 1.35 1.8 2.026 4.276 3.602 2.475 1.575 2.25-1.35 5.627 3.376 3.375 4.726 1.8 1.8 3.375 4.726 1.575 2.93 2.476 4.503 3.376 5.18.9.675 1.577 2.474 1.803 3.15.224.675 1.8 2.7 1.8 3.376 0 .675.45 2.476-.9 4.05-1.35 1.577-2.477 1.802-2.477 1.802s-2.7-1.35-3.6-2.7c-.902-1.35-2.026-2.477-3.603-5.177-1.575-2.7-3.376-5.627-4.276-6.977-.9-1.352-2.25-2.703-2.926-4.052-.674-1.35-2.475-5.4-3.375-5.852-.9-.45-1.126-1.8-2.702-3.376-1.574-1.576-1.35-2.926-2.025-3.826-.675-.9-2.25-2.928-2.25-2.928zM191.868 400.35c-1.576-.9-4.952-2.476-6.077-3.376-1.124-.9-4.5-5.854-4.5-5.854l-2.477-4.727s-2.925-3.6-2.25-4.95c.675-1.352 2.026-2.252 2.026-2.927 0-.675 1.35-2.477.223-3.15-1.125-.677-1.125-.9-1.8-2.927-.676-2.026-.676-3.83-1.576-4.278-.9-.45-1.576-3.376-2.476-3.6-.9-.227-1.8-1.802-1.8-1.802l-1.35-18.232s-.452-8.327-.9-10.13c-.452-1.8.674-5.625-.452-9.002-1.125-3.376.226-7.427-.45-8.778-.675-1.35.45-5.176-.225-8.777-.675-3.6 2.7-8.102 0-9.452-2.7-1.352-.675-3.377-2.926-3.377-2.25 0-3.826-1.125-5.852-2.7-2.026-1.575-5.853-4.502-6.978-5.628-1.125-1.124-4.727-4.05-5.852-4.95-1.125-.9-2.25-4.728-3.15-5.854-.9-1.124-1.35-4.5-2.702-6.526-1.35-2.025-3.15-5.4-3.602-6.077-.45-.675-5.4-6.527-5.4-6.527l.45-3.6s3.375-2.027 2.925-2.702c-.45-.676.226-1.352-1.35-2.7-1.577-1.353-1.352-3.83 0-4.953 1.35-1.127 3.375-4.728 3.375-4.728l3.376-5.626s2.702-2.93 2.702-4.954c0-2.025 3.826-3.375 1.575-5.176-2.25-1.802-1.125-3.377-1.8-4.728-.677-1.35-.226-2.25 1.8-3.6 2.026-1.352 5.627-6.303 5.627-6.303s2.7-.677 3.376-.677c.675 0 1.8-7.204 3.827-2.477 2.026 4.727 2.7 2.25 2.026 5.627-.677 3.376.9 2.702 1.8 1.802.9-.902-.452.675 1.35-3.378 1.8-4.05 1.125-5.4 2.25-4.275 1.125 1.126 1.575 1.35 3.6 2.026 2.026.675 2.702.45 3.376 1.8.675 1.35.45-.45 4.277.226 3.826.676 9.228-1.35 8.553.9-.675 2.25-2.026-.226 1.125 2.25 3.152 2.477 3.603 2.926 5.403 3.377 1.8.45 3.376.226 6.078 2.927 2.702 2.7 3.377 2.926 4.052 4.275.675 1.352 1.8.45 2.926 1.8 1.125 1.353 2.7 1.353 4.276 1.353 1.575 0 0-1.352 2.476.45 2.477 1.8 4.277 2.024 5.402 5.626 1.125 3.605 3.376 3.378 1.575 6.98-1.8 3.602-5.4 5.177-3.826 4.952 1.576-.226 4.503-1.577 5.403-1.35.9.223 1.35-.676 2.7 0 1.352.674 1.577-.9 1.352.674-.226 1.576-.226 0-.226 1.576 0 1.575-.45-1.576 2.25-.9 2.7.675 1.125-1.352 4.276 1.575 3.152 2.927 3.152 2.027 4.276 3.602 1.126 1.573 2.25-.9 2.927-.226.675.674 2.7.224 4.726.675 2.026.448.675-1.35 3.827.674 3.15 2.025 6.302 1.35 6.977 3.15.675 1.8 2.477 1.126 3.376 2.252.9 1.126 1.35-.45 2.25 1.126.9 1.574 3.603 1.124 3.152 2.7-.45 1.576.674.675.224 2.925-.45 2.253-2.026 5.854-3.375 6.753-1.35.9-1.35 2.026-2.25 3.15-.9 1.128-.676-1.124-1.802 2.027-1.125 3.152-.9 3.602-1.8 6.527-.9 2.925-.225 0-.9 2.926s-.225 4.727-.9 8.104c-.675 3.375-.45 3.376-.9 5.852-.45 2.476 1.125-1.124-.9 4.05-2.026 5.18-2.25 4.952-2.926 7.204-.677 2.252.224.45-2.252 1.8-2.476 1.353-1.125.9-4.052 1.802-2.925.9-6.527 1.802-7.652 2.026-1.125.224-5.627 1.575-4.276 4.275 1.35 2.702 1.35 3.152 0 6.53-1.35 3.374-3.376 4.5-3.376 6.075 0 1.575-.9 3.15-1.125 4.276-.226 1.126 2.025-1.126-.675 2.25-2.7 3.377-2.926 2.477-3.827 4.503-.9 2.025 0 .45-.9 2.025s-3.15 2.25-3.15 2.25.223 1.126-.677.676c-.9-.45-.675.225-4.052-.676-3.376-.9-3.826-3.15-4.276-1.575-.45 1.575.225 2.477 2.25 4.052 2.026 1.575 5.403 2.024 4.502 3.6-.9 1.577-.9 1.577-1.575 2.477-.676.9.9.225-.676.9-1.574.676-2.475 3.603-3.15 3.603-.675 0-1.126 1.125-2.026.675-.9-.45-3.15-2.026-3.6-1.126-.45.898-1.352-1.127-1.127 2.024.226 3.15.676 4.952-.45 5.628-1.125.675-3.827 0-3.827 0l-.45-1.126-1.575.45s-.675 2.7.45 3.15c1.125.45.9.9 2.025 2.25 1.126 1.352.45 3.828.45 3.828s0 .676-1.124 1.8c-1.125 1.126-1.576 2.027-1.8 2.702-.227.675-1.577 3.602.45 3.376 2.024-.226 3.6-1.35 3.6 2.25 0 3.602.9 2.703-.224 5.178-1.126 2.476-2.026 2.7-2.25 4.95-.225 2.252.225 2.477.675 3.828.45 1.35 1.576.675.45 1.35-1.123.676-4.5.002-4.5.002zM133.796 217.132l-1.575-2.25s-.674-1.352-1.8-1.576c-1.126-.224-3.602-3.15-3.602-3.15s-1.125-.9-1.125-2.476-.9-4.05-.226-6.752c.676-2.7.9-6.077.676-6.978-.226-.9 1.125-1.125-.45-2.026-1.576-.9-4.727-1.125-6.753-1.125-2.025 0-4.502.675-4.952.9-.45.224 2.476-6.753 2.926-7.878.45-1.125 2.476-6.078 2.476-6.752 0-.676.675-.9-.675-1.8s-3.6-1.35-4.952-.676c-1.35.676-1.125-.9-2.25 1.8-1.125 2.702-2.25 5.628-3.602 6.078-1.35.45-4.05 1.8-4.05 1.8s-3.376-.224-4.502-.45c-1.125-.224-5.852-2.7-6.752-4.275-.9-1.576-1.35-4.953-1.35-6.527 0-1.576 2.475-6.302 2.25-7.428-.225-1.125 2.477-5.627 2.25-6.303-.225-.676.45-2.927 1.126-3.827.675-.9 4.052-2.026 4.952-2.926.9-.9 2.476-2.025 4.05-2.476 1.576-.45 2.928-.9 4.053-.9s4.05-2.475 4.5 0c.452 2.476 2.478 1.576 3.603 1.8 1.125.227 1.35 1.352 3.15-1.574 1.802-2.927 3.602-3.827 3.602-3.152 0 .676 2.926-.224 3.376.45.45.676 1.35-.45 2.926.9 1.576 1.352 3.826 1.577 3.6 2.25-.224.676.9.676.9 1.352 0 .675.902-1.576.902 2.475 0 4.053 1.125 6.53 1.125 6.53s1.576 3.376 2.25 2.7c.676-.675 2.026-2.475 2.026-2.475s2.25-1.35.676-6.078c-1.576-4.726-.45-6.077-.9-7.653-.45-1.576-.45-2.477 2.25-4.502s9.228-6.527 10.804-7.427c1.575-.9 5.176-3.376 5.176-3.376s1.35-.676 1.576-2.477c.225-1.8 4.5-4.952 4.727-5.852.226-.9 3.152-3.15 3.152-3.15s3.15-1.8 2.925-2.925c-.225-1.125 4.052-3.15 4.727-3.15.674 0 4.276 1.124 4.276-.902 0-2.025 0-2.476 2.25-4.276 2.25-1.8 5.177-4.502 6.303-4.502 1.124 0 4.95-2.024 6.526-2.475 1.576-.45 6.528-2.702 2.026 0-4.502 2.7-1.576 1.125-2.476 3.376-.9 2.25-1.576 5.177 2.7 1.8 4.278-3.376 4.052-4.052 5.628-4.276 1.576-.225.45.675 3.826-.45 3.377-1.126 3.602-1.576 3.602-1.576s1.576-1.35.675-2.025c-.9-.677.9-1.577-2.476-.227-3.375 1.35-3.15 1.576-5.4.9-2.25-.675-5.628-.45-3.152-2.702 2.476-2.25 5.627-2.925 3.6-3.825-2.024-.9-7.2.226-7.876.45-.676.225-2.25-.225-3.602 0-1.35.225-.9-1.8 0-2.25.9-.45 3.827-1.802 7.428-2.702 3.6-.9 12.38-1.125 14.405-1.125 2.025 0 4.726.45 6.302-.675 1.575-1.125 4.727-2.925 5.177-3.827.45-.9 2.25-2.25 2.25-2.25s2.026-2.026.9-2.926c-1.124-.9-2.25-2.926-3.15-2.476-.9.45-.224 3.152-2.025.225-1.8-2.926-1.576-3.377-2.476-4.052-.9-.675-1.8-.226-1.124-3.376.675-3.15.45-4.502.45-4.502s.675-2.7 0-2.925c-.676-.226-1.125-.9-2.25-.226-1.126.674-7.428 3.826-8.778 4.5-1.35.676-3.152-2.7-2.477-4.275.677-1.577.226-.676-.674-2.926-.9-2.252-4.5-2.703-5.852-2.703-1.35 0-4.5-2.026-5.402-.675-.9 1.35-5.626 5.626-6.528 6.077-.9.45-2.25-3.827-2.925 3.15-.677 6.98 2.475 9.004-1.126 9.454-3.6.45-6.753 2.475-6.753 2.475s-2.924.225-2.924 2.025c0 1.802-1.125 6.077-2.477 6.527-1.35.45-4.728-.224-5.853-1.575-1.125-1.35.225-6.302.225-6.302l2.026-2.026s-14.405-2.25-14.18-3.152c.225-.9-4.277-2.475-4.727-3.826-.45-1.35-.675-4.277-.224-5.402.45-1.125 6.527-6.527 9.678-7.652 3.15-1.126 8.553-3.6 10.13-4.052 1.575-.45 4.275-.225 5.176-1.35.9-1.126 1.125-3.15 1.125-3.15s-.45-3.153.45-2.703c.9.45 2.476 1.126 2.7 1.8.227.676.227 2.252 1.802.45 1.576-1.8 3.602-2.476 5.402-3.375 1.8-.9 4.5-.675 6.077-1.575 1.575-.9 4.276-1.8 4.5-4.052.226-2.25-.674-1.574-1.8-1.8-1.125-.224.45.226-3.376 2.026-3.826 1.8-2.7.45-5.4 1.8-2.702 1.35-2.928 1.576-3.152.45-.226-1.125.45-2.925.45-2.925s.226-.225-1.35-.674c-1.576-.45-1.576.225-1.8-1.8-.226-2.026 1.124-4.952-1.126-4.052-2.25.9-4.276-.675-5.852 3.826-1.576 4.5-6.978 9.23-8.33 8.103-1.35-1.125-1.574-1.35-2.7-1.35-1.126 0-2.7-1.35-4.727-1.576-2.026-.225-8.104-.225-9.678 0-1.576.226-3.376-.9-4.728.45-1.35 1.35-3.375 3.152-3.375 3.828 0 .675-2.026-2.477-2.7-2.25-.676.224-2.478-.9-4.502-.9-2.026 0-3.377-1.127-4.05-1.127-.676 0 .673-1.8 0-2.026-.676-.224-15.308-.675-15.308-.675s-4.726-1.8-6.526-1.575c-1.8.225-6.752.45-10.58 1.125-3.827.675-9.454 2.926-11.254 3.15-1.8.227-5.852.227-6.527-.9-.676-1.124.225-.9-.676-1.124-.9-.224-.225-.675-2.25-2.25-2.027-1.576.9-2.926-3.152-2.926-4.05 0-6.527-.226-10.128 0-3.602.225-11.03 2.025-11.93 1.8-.9-.225-8.102 1.126-9.228.45-1.125-.675-6.753 2.476-7.877 2.25-1.125-.224-5.402.227-6.527.902-1.126.675-6.528 2.024-4.727 3.15 1.8 1.125 1.576 2.25 1.8 2.926.227.675-1.8 2.25-1.8 2.25s-.45 0-2.925-.9c-2.476-.9-5.177-1.35-6.303-.675-1.125.676-3.15 2.028-2.7 2.928.45.9 3.6 2.926 4.05 2.25.45-.675 1.577-2.025 2.927-1.8 1.35.226 3.376-.9 1.575 1.35-1.8 2.25-3.377 3.377-4.502 3.603-1.125.225-3.826.45-6.302.676-2.476.226-2.25-.9-4.5 1.35s-3.152.9-3.602 3.377c-.45 2.475-.9 2.475 0 3.15.9.676-1.8.9.225 1.576 2.025.675 4.5 1.35 4.276 2.024-.227.676 2.25-.9.9.9-1.352 1.802-2.25 3.376.45 1.576 2.7-1.8 4.275-.45 6.526-1.576 2.25-1.125 4.502-1.35 5.852-2.25 1.35-.9 2.026-2.25 4.052-2.927 2.026-.675.675.226.9 1.35.225 1.126 0 1.35 1.35.45 1.35-.9 1.35-.224 3.152-1.35 1.8-1.125 3.826-2.25 5.177-1.576 1.35.677 1.8.677 2.7.677.9 0-1.125-.226.9 0 2.026.224-.9-.676 5.852.9 6.753 1.575 8.554.45 9.003 2.926.45 2.476 1.35-.226 2.476 1.35 1.126 1.575 1.802.226 2.477 2.926.675 2.7 0 10.128-.45 11.028-.45.9-.675.9-.45 2.926.225 2.025 2.926 11.705 2.026 12.38-.9.673-2.926.9-2.926.9l-1.125 4.05s-1.8 3.376-3.376 5.177c-1.576 1.8-3.6 4.053-4.727 5.627-1.126 1.576-2.027 4.278-3.602 5.853-1.575 1.575-2.926.9-2.476 4.276.45 3.376 0 6.977.45 9.454.45 2.476 1.576 5.852 2.476 7.203.9 1.35 1.576 1.35 3.15 2.475 1.577 1.125 3.603 2.477 3.377 3.602-.225 1.125.225 8.104.225 8.104s1.35 2.25 1.575 4.726c.226 2.477 1.8 4.952 1.8 4.952l1.352 2.927s.675.225 1.576 2.024c.9 1.8.9 1.8 1.125 2.7.226.902.226.676.226.902 0 .224-.226-3.827-.676-4.953-.45-1.125-.45-2.475-.9-3.826-.45-1.35.225-2.927-1.125-4.952s-1.35-2.25-2.025-4.277c-.675-2.025-1.576-4.276-.675-4.727.9-.448 1.575-3.374 3.376 0 1.8 3.377 2.025 2.478 2.25 5.18.224 2.7.9 3.6 1.575 4.725.675 1.125 2.25 4.953 3.15 6.527.9 1.576 0-.9 2.026 2.25 2.027 3.152 2.253 3.827 3.378 6.303s1.8 2.476 2.476 4.276c.675 1.803.225 1.352-.226 3.377-.45 2.025.45 4.277.45 4.277s3.15 1.125 3.376 1.8c.225.675 3.376 1.8 3.827 2.7.45.902 3.377 2.026 3.377 2.026s2.476 1.576 3.375 2.026c.9.45 3.603.9 3.603.9s1.8.452 2.475.676c.675.225 2.7.225 2.7.225s1.802-1.35 2.477-.9c.675.45 2.25-.9 2.926.224.675 1.127 2.026 1.127 2.7 2.028.676.9 1.35.9 2.477 2.025 1.126 1.125 2.25.9 3.376 1.8 1.125.9 2.025.9 3.376.9 1.35 0 1.35 0 2.25.226.9.224 1.35-.677 2.25.45.9 1.125 1.576 1.8 2.25 2.925.676 1.125 2.252 1.125 2.477 2.926.224 1.8.674 1.578.674 3.152 0 1.576.9 2.25 1.576 2.702.674.45 3.15 2.7 3.15 2.7l3.376.675 2.7 2.025zM205.935 8.03l13.505-1.688s4.726 0 7.09-1.688c2.363-1.688 0-1.688 7.09-3.038 7.09-1.35 5.065-2.026 8.78-1.35 3.712.675 4.725.675 8.777 1.35 4.05.675 5.064-.337 8.777.675 3.714 1.014 5.402.676 8.44.676h9.454c4.727 0 9.116-2.7 10.804-1.013 1.688 1.688 2.7 1.013 8.44 1.688 5.74.676 8.104-.675 10.467 0 2.363.676 6.415-.336 11.14 0 4.727.338 7.09-.336 8.78-.336 1.687 0 3.374-2.364 5.738-.338 2.364 2.026 5.402-.675 5.74 2.026.337 2.7 4.726.675.337 2.7-4.39 2.027-3.714 1.69-6.753 4.39-3.038 2.7 2.026 5.064-4.39 7.428-6.414 2.363-7.427-1.35-9.115 2.7-1.688 4.052 0 5.065-.337 7.09-.338 2.026-1.013 2.364-3.04 4.052-2.024 1.688-2.024 0-6.75 1.013-4.728 1.013-8.104 2.026-10.13 2.026-2.025 0-6.414 1.69-7.765 2.364-1.35.676 2.364 1.688-4.727 3.714-7.09 2.026-8.78 1.69-10.804 4.39-2.026 2.7-1.35 3.04-2.7 4.727-1.352 1.688-5.403 8.44-7.43 6.753-2.024-1.688-3.038-1.35-4.726-3.04-1.688-1.687-2.7-4.05-3.714-5.4-1.013-1.352-1.35-4.728-1.688-6.754-.337-2.026-3.377-6.752 0-6.077 3.376.675 5.402.338 6.415-.337 1.014-.676 2.027-3.04 2.027-3.04s-.337-3.713-1.35-5.74c-1.014-2.025-.338-3.713-2.026-5.738-1.687-2.026-1.687-1.688-4.05-3.714-2.364-2.026-1.69-3.04-5.403-3.376-3.714-.337-4.727-1.35-6.078-1.013-1.35.336-5.74-2.365-1.014-2.702 4.727-.338 9.116.337 9.116.337s6.077-2.7 4.052-3.038c-2.025-.338 3.038-3.377-1.688-2.364-4.727 1.013-10.128 2.364-11.48 2.7-1.35.338-4.726.676-8.102 1.69-3.375 1.012-7.428.675-9.453 3.038-2.025 2.364 0 2.702-2.025 2.364-2.025-.337 1.688-2.363-3.038 0-4.727 2.364-3.376 2.026-5.74 1.35-2.363-.674-4.05-1.687-4.05-1.687s3.04-.338-1.35-.675c-4.39-.337-4.39-.337-6.078-2.364-1.69-2.026-.676-2.026.336-2.7 1.014-.677 1.69-2.028 1.69-2.028z" transform="matrix(.026 0 0 .04 1.763 2.654)"/><path d="M198.507 23.223c-1.688 1.688-5.74 4.052-4.726 5.065 1.014 1.013 1.69 4.727 3.715 3.714 2.025-1.013-.338-4.39 7.427-1.688 7.766 2.7 7.09-.337 8.778 3.714 1.688 4.05 3.038 7.09 2.025 8.103-1.012 1.014-1.35 2.027-4.727 3.04-3.376 1.013-4.727 2.364-2.363 4.05 2.363 1.69 6.753 3.377 8.778 4.39 2.026 1.013 8.103 1.352 5.064-2.024-3.04-3.376.675-4.39.675-4.39s5.74 4.39 3.715-.675c-2.026-5.063-3.377-5.063-2.026-5.063 1.352 0 4.052 1.688 4.052 1.688l1.35-2.7-1.35-4.39-4.39-4.39s3.714-3.375-1.35-4.05c-5.064-.675-4.727-.675-7.428-2.364-2.7-1.687-3.038-2.362-8.103-1.35-5.063 1.014-6.75 1.69-6.75 1.69zM123.218 27.275c2.026-2.026 7.428-6.752 9.454-5.402 2.025 1.35 5.063-1.013 7.427 1.013 2.362 2.026 5.063 4.39 7.09 5.064 2.025.675 4.388-1.688 6.414-.675 2.025 1.013 9.115-5.064 7.765-.337-1.352 4.727 1.687 6.077-2.027 6.415-3.714.338-7.765 3.04-9.454 2.026-1.69-1.014-3.04-2.027-5.74-.676-2.702 1.35-1.35 1.35-4.39.675-3.038-.676-3.713.674-4.388-.34-.676-1.01-2.7-.674-2.364-3.713.337-3.038 1.35-2.7-.676-2.7-2.025 0-3.713.337-5.064-.676-1.35-1.012-4.05-.675-4.05-.675z" transform="matrix(.026 0 0 .04 1.763 2.654)"/></g><path d="M12 .808c7.1 3.525 6.086 16.744 0 19.388M.842 10.502h22.316M2.21 5.2c5.682.76 13.797.76 19.478 0M2.21 15.803c5.682-.758 13.797-.758 19.478 0M12 .808C5.914 3.452 4.9 16.67 12 20.196" fill="none" stroke="#fff" stroke-width=".45003599999999994"/><path d="M6.966 13.81c0 6.713-5.423 12.156-12.113 12.156-6.69 0-12.112-5.443-12.112-12.157 0-6.715 5.424-12.157 12.113-12.157 6.69 0 12.113 5.442 12.113 12.156z" fill="none" stroke="#6e96c4" stroke-width="1.341" transform="matrix(.942 0 0 .816 16.85 -.76)"/><g transform="matrix(.692 0 0 .692 1.846 1.846)"><rect fill="#5a8c5a" height="13" rx="2.615" ry="2.615" width="13" x="19" y="19"/><path d="M21.6 25.5h7.8M25.5 29.4v-7.8" fill="#fff" fill-rule="evenodd" stroke="#fff" stroke-width="2.6" stroke-linecap="round" stroke-linejoin="round" overflow="visible"/><path d="M20.3 25.5h10.4v-2.6c0-2.6-.65-2.6-5.2-2.6s-5.2 0-5.2 2.6v2.6z" fill="#fcffff" fill-rule="evenodd" opacity=".3"/></g></symbol><symbol id="icon-mactiondatasourcemanager" viewBox="0 0 24 24"><defs><path id="a" d="M3.352 4.766H15.81v12.46H3.352z"/><path id="b" d="M4.57 1.73h12.46v12.458H4.57z"/><path id="c" d="M8.154.04h12.46V12.5H8.153z"/></defs><g fill="none" fill-rule="evenodd"><g transform="rotate(7 -8.463 10.06)"><g transform="rotate(-34 9.58 10.995)"><use fill="#D06935" xlink:href="#a"/><path stroke="#A5552D" stroke-width=".75" d="M3.727 5.14v11.71h11.708V5.14H3.727z"/></g><g transform="rotate(-19 10.8 7.96)"><use fill="#ECC61D" xlink:href="#b"/><path stroke="#CDB02F" stroke-width=".75" d="M4.945 2.105v11.708h11.71V2.105H4.944z"/></g><use fill="#6D97C4" xlink:href="#c"/><path stroke="#5C7691" stroke-width=".75" d="M8.53.416h11.708v11.71H8.528z"/></g><g transform="matrix(.692 0 0 .692 1.007 1.025)"><rect height="13" rx="2.615" ry="2.615" width="13" x="19" y="19" fill="#5a8c5a"/><path d="M21.6 25.5h7.8M25.5 29.4v-7.8" overflow="visible" fill="#fff" stroke="#fff" stroke-width="2.6" stroke-linecap="round" stroke-linejoin="round"/><path d="M20.3 25.5h10.4v-2.6c0-2.6-.65-2.6-5.2-2.6s-5.2 0-5.2 2.6v2.6z" opacity=".3" fill="#fcffff"/></g></g></symbol><symbol id="icon-mactionfileprint" viewBox="0 0 24 24"><filter id="a" height="1.5" width="1.5" x="-.25" y="-.25"><feGaussianBlur in="SourceAlpha" result="blur" stdDeviation="2"/><feColorMatrix result="bluralpha" values="1 0 0 0 0 0 1 0 0 0 0 0 1 0 0 0 0 0 0.351000 0"/><feOffset dx="7.5" dy="7.5" in="bluralpha" result="offsetBlur"/><feMerge><feMergeNode in="offsetBlur"/><feMergeNode in="SourceGraphic"/></feMerge></filter><g transform="translate(0 -8)"><rect fill="#6d97c4" height="10" rx="2" stroke="#415a75" stroke-linecap="round" width="19" x="2.5" y="14.5"/><path d="M3 15v3c0 1 2 1 3 1h12c1 0 3 0 3-1v-3z" fill="#90b1d1"/><path d="M6.5 20.5h11v4h-11z" fill="#7c7c7c" stroke="#545658" stroke-linecap="round"/><rect fill="none" height="10" rx="2" stroke="#415a75" stroke-linecap="round" width="19" x="2.5" y="14.5"/><path d="M7.5 10.5h9v6h-9z" fill="#ededed" stroke="#959595" stroke-linecap="round"/><path d="M7.5 21.5h9v8h-9z" fill="#fbfefe" stroke="#959595" stroke-linecap="round"/><path d="M9 25.5h6M9 27.5h6M9 23.5h6" fill="none" stroke="#969696"/><path d="M7 21.5h10" fill="none" stroke="#767676"/><path d="M7 22.5h10" fill="none" opacity=".5" stroke="#767676"/></g></symbol><symbol id="icon-mactionmeasure" viewBox="0 0 24 24"><path d="M1.5 12.5h21v7h-21z" overflow="visible" fill="#c7c7c7" fill-rule="evenodd" stroke="#5b5b5c" stroke-linecap="square"/><path d="M4.5 13v3M7.5 13v3M10.5 12v6M13.5 13v3M16.5 13v3M19.5 13v3" fill="none" stroke="#5b5b5c"/><path d="M2.5 5v4M21.5 5v4" fill="none" stroke="#415a75"/><path d="M2 7h20" fill="none" stroke="#415a75" stroke-width="2"/></symbol><symbol id="icon-mactionmeasurearea" viewBox="0 0 24 24"><path d="M1.5 12.5h21v7h-21z" overflow="visible" fill="#c7c7c7" fill-rule="evenodd" stroke="#5b5b5c" stroke-linecap="square"/><path d="M4.5 13v3M7.5 13v3M10.5 12v6M13.5 13v3M16.5 13v3M19.5 13v3" fill="none" stroke="#5b5b5c"/><path d="M2.5 1.5h5v2h14V11H15V6h-5v3.5H2.5z" fill="#6d97c4" fill-rule="evenodd" stroke="#415a75"/></symbol><symbol id="icon-mactionpan" viewBox="0 0 24 24"><path d="M9.38.755c-.982 0-1.893.626-1.893 1.496v.004l.06 8.197-.935-2.09c-.026-.058-.06-.112-.103-.16-.368-.42-.85-.706-1.357-.778-.506-.07-.92.03-1.322.115-.606.13-.955.57-1.093.985-.132.395-.115.82.06 1.234l2.028 6.08c.016.05.04.098.07.143L8.3 21.16l.824 2.37c.094.27.412.472.74.47l7.817-.055c.347-.003.673-.232.744-.523l2.127-8.753c.004-.012.006-.022.008-.033.105-.573.068-1.537.043-2.53-.012-.498-.028-.98-.04-1.352-.012-.373-.01-.724-.014-.655l.002-.045V7.12c0-.046-.006-.094-.018-.14-.093-.358-.222-.694-.52-.987-.275-.274-.762-.446-1.22-.424v-.007c-.02 0-.04.006-.06.006-.015 0-.03-.002-.043 0v.004c-.32.017-.62.11-.867.257v-.193c0-.87-.912-1.496-1.894-1.496h-.006c-.56 0-1.09.21-1.45.547v-.88c0-.87-.91-1.496-1.89-1.496-.49 0-.96.155-1.31.417V2.25c0-.867-.908-1.495-1.89-1.495z" fill="#ccc"/><path d="M9.736.34c-.982 0-1.892.626-1.892 1.496v.004l.058 8.09-.934-2.09c-.025-.057-.06-.11-.102-.16-.368-.418-.85-.706-1.356-.777-.506-.072-.922.03-1.322.115-.608.13-.957.57-1.095.985-.13.395-.115.82.062 1.233h-.002l2.03 6.082c.015.05.038.097.067.142l3.408 5.182.822 2.37c.094.27.412.47.742.468l7.815-.054c.347-.003.673-.233.743-.523l2.128-8.754.007-.032c.105-.574.067-1.538.042-2.532-.013-.497-.03-.978-.04-1.35-.012-.374-.01-.725-.015-.655l.002-.045V6.602c0-.048-.006-.095-.018-.142-.092-.357-.222-.693-.52-.987-.275-.273-.76-.445-1.22-.423v-.006c-.02 0-.04.005-.06.006-.014 0-.03-.002-.043 0v.004c-.32.018-.62.11-.867.257V5.12c0-.87-.91-1.496-1.894-1.496h-.005c-.56 0-1.092.21-1.45.545v-.88c0-.87-.91-1.495-1.892-1.495-.487 0-.958.153-1.308.415v-.37c0-.87-.91-1.497-1.89-1.497z" fill="#999"/><path d="M10.29.063c-.96 0-1.85.613-1.85 1.465v.003L8.5 9.528 7.585 7.48c-.025-.056-.058-.11-.1-.157-.36-.41-.83-.69-1.326-.76-.495-.07-.9.028-1.293.112-.594.126-.935.558-1.07.964-.13.386-.112.803.06 1.206L5.838 14.8c.014.047.037.094.066.138l3.33 5.073.805 2.32c.093.265.403.46.726.46l7.64-.055c.338-.002.657-.227.726-.51l2.08-8.57.007-.03c.102-.562.065-1.505.04-2.478-.012-.487-.028-.958-.04-1.323-.01-.365-.008-.708-.013-.64V6.267c.002-.047-.004-.093-.016-.14-.09-.348-.216-.677-.506-.965-.27-.267-.746-.436-1.193-.414v-.007c-.02 0-.04.005-.06.006-.013 0-.027-.003-.04 0v.003c-.313.017-.606.11-.848.252v-.19c0-.852-.89-1.464-1.852-1.464h-.005c-.548 0-1.067.205-1.417.535v-.863c0-.85-.89-1.463-1.85-1.463-.476 0-.936.15-1.28.406v-.438c0-.85-.887-1.465-1.847-1.465z" stroke="#000" stroke-width=".035"/><path d="M10.29.81c-.61 0-1.1.366-1.1.822l.065 9.38c-.017.39-.692.46-.82.175L6.886 7.71c-.576-.658-1.07-.576-1.836-.412-.523.11-.74.81-.474 1.372l1.982 5.953L9.93 19.76l.83 2.387 7.638-.053 2.08-8.57c.138-.746-.042-4.096-.018-4.385V6.267c-.153-.587-.438-.947-.97-.884-.61 0-.923.428-.923.884v2.84c.106.386-.814.487-.775 0V4.815c0-.456-.492-.823-1.102-.823h-.005c-.61 0-1.102.367-1.102.823v3.446c.112.417-1.09.54-1.063-.002V3.023c0-.456-.492-.822-1.102-.822-.61 0-1.102.367-1.102.823v5.505c.048.382-.902.478-.926 0V1.63c0-.456-.49-.822-1.1-.822z" fill="#fff" stroke="#000" stroke-width=".016"/></symbol><symbol id="icon-mactionshowalllayers" viewBox="0 0 24 24"><radialGradient id="a" cx="16.5" cy="-12.5" gradientTransform="matrix(.714 1.064 -.693 .46 -10.292 4.616)" gradientUnits="userSpaceOnUse" r="7"><stop offset="0" stop-color="#bed1e5"/><stop offset="1" stop-color="#6d97c4"/></radialGradient><g transform="translate(0 -8)"><path d="M23.92 22.59s-1.89-.278-2.87-1.368c-.627-.697-3.68-3.947-5.455-4.65-2.963-1.173-5.32-1.134-7.57-.547-2.09.547-3.53 1.338-4.903 2.646-.64.61-1.518 2.274-1.506 2.552-.02.23 1.215 2.153 2.868 3.326 1.508 1.07 3.592 2.337 5.903 2.733 2.795.48 3.82.38 6.48-.47 1.4-.446 3.89-2.57 3.89-2.57s.52-.348 1.332-.952c.7-.52 1.83-.7 1.83-.7z" fill="#eeeeec" fill-rule="evenodd"/><path d="M10.704 15.637c-.788.03-1.067.046-1.907.208-.48.095-1.032.243-1.26.314-.83.985-1.232 2.302-1.232 3.586 0 3.025 2.468 5.477 5.512 5.477 3.043 0 5.51-2.452 5.51-5.477 0-.803.043-1.575-.3-2.3-.525-.402-1.162-.755-1.585-.92-1.87-.72-3.335-.94-4.738-.89z" fill="url(#a)" stroke="#415a75" stroke-linecap="round" stroke-linejoin="round"/><ellipse cx="11.817" cy="19.659" rx="2.226" ry="2.212"/><path d="M1.143 15.424c5.006-1.495 8.554-2.062 10.993-2.286 5.222-.48 7.062.4 8.403 1.39 1.447 1.066 1.762 1.76 1.762 1.76" fill="none" stroke="#888a85"/><path d="M23.92 22.59s-1.89-.278-2.87-1.368c-.627-.697-3.68-3.947-5.455-4.65-2.963-1.173-5.32-1.134-7.57-.547-2.09.547-3.53 1.338-4.903 2.646-.64.61-1.518 2.274-1.506 2.552-.02.23 1.215 2.153 2.868 3.326 1.508 1.07 3.592 2.337 5.903 2.733 2.795.48 3.82.38 6.48-.47 1.4-.446 3.89-2.57 3.89-2.57s.52-.348 1.332-.952c.7-.52 1.83-.7 1.83-.7z" fill="none" stroke="#888a85"/><ellipse cx="11.17" cy="18.742" fill="#eeeeec" rx=".891" ry=".885"/></g></symbol><symbol id="icon-mactionzoomfullextent" viewBox="0 0 24 24"><path d="M17.96 7c0 3.355-2.668 6.074-5.96 6.074S6.04 10.354 6.04 7C6.04 3.645 8.707.926 12 .926S17.96 3.646 17.96 7z" transform="matrix(1.342 0 0 1.317 -1.604 .28)" opacity=".8" fill="#e6e6e6" stroke="#505050" stroke-width=".752" stroke-linecap="round" stroke-linejoin="round" stroke-dashoffset="7"/><path d="M23.5 19.918h-7.778l2.593-2.593-2.593-2.592 2.593-2.593 2.592 2.593L23.5 12.14z" fill="#6d97c4" fill-rule="evenodd" stroke="#415a75" stroke-linejoin="round"/><path d="M7.5 14.5c0 2 2 2 2 2l-7 7-2-2z" fill="#ffcc30" fill-rule="evenodd" stroke="#505050" stroke-linejoin="round"/><path d="M6 16l2-2 2 2-2 2z" fill-rule="evenodd" stroke="#505050" stroke-linejoin="round"/><path d="M10 5c2-3 4.442-3.398 6-2 1.558 1.398-2 1-4 3s0 6-2 6-2-4 0-7z" fill="#fcffff" fill-rule="evenodd" opacity=".7"/><path d="M2 21l4-4" opacity=".5" overflow="visible" stroke="#fcffff" stroke-linecap="round" stroke-linejoin="round"/><path d="M23.5.5v7.778l-2.593-2.593-2.592 2.593-2.593-2.593 2.593-2.592L15.722.5zM4.082.5h7.778L9.267 3.093l2.593 2.592-2.593 2.593-2.592-2.593-2.593 2.593z" fill="#6d97c4" fill-rule="evenodd" stroke="#415a75" stroke-linejoin="round"/></symbol><symbol id="icon-mactionzoomin" viewBox="0 0 24 24"><path d="M17.96 7c0 3.355-2.668 6.074-5.96 6.074S6.04 10.354 6.04 7C6.04 3.645 8.707.926 12 .926S17.96 3.646 17.96 7z" transform="matrix(1.342 0 0 1.317 -1.604 .28)" opacity=".8" fill="#e6e6e6" stroke="#505050" stroke-width=".752" stroke-linecap="round" stroke-linejoin="round" stroke-dashoffset="7"/><path d="M10 5c2-3 4.442-3.398 6-2 1.558 1.398-2 1-4 3s0 6-2 6-2-4 0-7z" fill="#fcffff" fill-rule="evenodd" opacity=".7"/><path d="M14.5 5.2v8.6" fill="none" stroke="#000" stroke-width="2.9" stroke-linecap="round" stroke-linejoin="round" overflow="visible"/><path d="M2 21l4-4" opacity=".5" overflow="visible" stroke="#fcffff" stroke-linecap="round" stroke-linejoin="round"/><path d="M10.2 9.5h8.6" fill="none" stroke="#000" stroke-width="2.9" stroke-linecap="round" stroke-linejoin="round" overflow="visible"/><path d="M10.2 9.5h8.6" fill="none" stroke="#6d97c4" stroke-width="2.5" stroke-linecap="round" stroke-linejoin="round" overflow="visible"/><g stroke-linejoin="round"><path d="M7.5 14.5c0 2 2 2 2 2l-7 7-2-2z" fill="#ffcc30" fill-rule="evenodd" stroke="#505050"/><path d="M6 16l2-2 2 2-2 2z" fill-rule="evenodd" stroke="#505050"/><path d="M2 21l4-4" opacity=".5" overflow="visible" stroke="#fcffff" stroke-linecap="round"/></g><path d="M14.5 5.2v8.6" fill="none" stroke="#6d97c4" stroke-width="2.5" stroke-linecap="round" stroke-linejoin="round" overflow="visible"/></symbol><symbol id="icon-mactionzoomlast" viewBox="0 0 24 24"><g transform="translate(0 -8)"><path d="M7.5 22.5c0 2 2 2 2 2l-7 7-2-2z" fill="#ffcc30" fill-rule="evenodd" stroke="#505050" stroke-linejoin="round"/><path d="M17.96 7c0 3.355-2.668 6.074-5.96 6.074S6.04 10.354 6.04 7C6.04 3.645 8.707.926 12 .926S17.96 3.646 17.96 7z" transform="matrix(1.342 0 0 1.317 -1.604 8.28)" opacity=".8" fill="#e6e6e6" stroke="#505050" stroke-width=".752" stroke-linecap="round" stroke-linejoin="round" stroke-dashoffset="7"/><rect fill="#6d97c4" height="10.8" rx=".982" stroke="#000" stroke-linejoin="round" stroke-width=".4" width="10.8" x="13" y="21"/><path d="M21 29.8c-1.8-2-2.89-1.97-5.2-3.402C18 25 19.2 25.2 21 23" fill="none" stroke="#fff" stroke-width="2" stroke-linecap="round" stroke-linejoin="round" overflow="visible"/><path d="M10 24l-2 2-2-2 2-2z" fill-rule="evenodd" stroke="#505050" stroke-linejoin="round"/><path d="M10 13c2-3 4.442-3.398 6-2 1.558 1.398-2 1-4 3s0 6-2 6-2-4 0-7z" fill="#fcffff" fill-rule="evenodd" opacity=".7"/><path d="M2 29l4-4" opacity=".5" overflow="visible" stroke="#fcffff" stroke-linecap="round" stroke-linejoin="round"/><rect fill="#fff" fill-opacity=".12" height="5.2" rx=".813" ry=".713" width="10.4" x="13.2" y="21.2"/></g></symbol><symbol id="icon-mactionzoomnext" viewBox="0 0 24 24"><g transform="translate(0 -8)"><path d="M7.5 22.5c0 2 2 2 2 2l-7 7-2-2z" fill="#ffcc30" fill-rule="evenodd" stroke="#505050" stroke-linejoin="round"/><path d="M17.96 7c0 3.355-2.668 6.074-5.96 6.074S6.04 10.354 6.04 7C6.04 3.645 8.707.926 12 .926S17.96 3.646 17.96 7z" transform="matrix(1.342 0 0 1.317 -1.604 8.28)" opacity=".8" fill="#e6e6e6" stroke="#505050" stroke-width=".752" stroke-linecap="round" stroke-linejoin="round" stroke-dashoffset="7"/><g stroke-linejoin="round" transform="rotate(180 18.4 26.4)"><rect fill="#6d97c4" height="10.8" rx=".982" stroke="#000" stroke-width=".4" width="10.8" x="13" y="21"/><path d="M21 29.8c-1.8-2-2.89-1.97-5.2-3.402C18 25 19.2 25.2 21 23" fill="none" overflow="visible" stroke="#fff" stroke-linecap="round" stroke-width="2"/></g><path d="M10 24l-2 2-2-2 2-2z" fill-rule="evenodd" stroke="#505050" stroke-linejoin="round"/><path d="M10 13c2-3 4.442-3.398 6-2 1.558 1.398-2 1-4 3s0 6-2 6-2-4 0-7z" fill="#fcffff" fill-rule="evenodd" opacity=".7"/><path d="M2 29l4-4" opacity=".5" overflow="visible" stroke="#fcffff" stroke-linecap="round" stroke-linejoin="round"/><rect fill="#fff" fill-opacity=".12" height="5.2" rx=".813" ry=".713" width="10.4" x="13.2" y="21.2"/></g></symbol><symbol id="icon-mactionzoomout" viewBox="0 0 24 24"><path d="M17.96 7c0 3.355-2.668 6.074-5.96 6.074S6.04 10.354 6.04 7C6.04 3.645 8.707.926 12 .926S17.96 3.646 17.96 7z" transform="matrix(1.342 0 0 1.317 -1.604 .28)" opacity=".8" fill="#e6e6e6" stroke="#505050" stroke-width=".752" stroke-linecap="round" stroke-linejoin="round" stroke-dashoffset="7"/><path d="M10 5c2-3 4.442-3.398 6-2 1.558 1.398-2 1-4 3s0 6-2 6-2-4 0-7z" fill="#fcffff" fill-rule="evenodd" opacity=".7"/><path d="M2 21l4-4" opacity=".5" overflow="visible" stroke="#fcffff" stroke-linecap="round" stroke-linejoin="round"/><path d="M10.5 9.5h8" fill="none" stroke="#000" stroke-width="2.9" stroke-linecap="round" stroke-linejoin="round" overflow="visible"/><path d="M10.5 9.5h8" fill="none" stroke="#6d97c4" stroke-width="2.5" stroke-linecap="round" stroke-linejoin="round" overflow="visible"/><g stroke-linejoin="round"><path d="M7.5 14.5c0 2 2 2 2 2l-7 7-2-2z" fill="#ffcc30" fill-rule="evenodd" stroke="#505050"/><path d="M6 16l2-2 2 2-2 2z" fill-rule="evenodd" stroke="#505050"/><path d="M2 21l4-4" opacity=".5" overflow="visible" stroke="#fcffff" stroke-linecap="round"/></g></symbol><symbol id="icon-mactionzoomtoarea" viewBox="0 0 24 24"><path d="M1.297 1.65l17.617-.147v13.215H1.297V1.652z" opacity=".99" fill="none" stroke="#000" stroke-width="1.062" stroke-linejoin="round" stroke-dasharray="2.124 2.124" stroke-dashoffset="3.611"/><path d="M17.96 7c0 3.355-2.668 6.074-5.96 6.074S6.04 10.354 6.04 7C6.04 3.645 8.707.926 12 .926S17.96 3.646 17.96 7z" transform="matrix(1.4 0 0 1.374 -1.674 -.75)" opacity=".8" fill="#e6e6e6" stroke="#505050" stroke-width=".752" stroke-linecap="round" stroke-linejoin="round" stroke-dashoffset="7"/><path d="M7.826 14.088c0 2.086 2.087 2.086 2.087 2.086L2.61 23.478.52 21.39z" fill="#ffcc30" fill-rule="evenodd" stroke="#505050" stroke-linejoin="round" stroke-width="1.043"/><path d="M6.26 15.653l2.088-2.087 2.087 2.087-2.087 2.087z" fill-rule="evenodd" stroke="#505050" stroke-linejoin="round" stroke-width="1.043"/><path d="M10.435 4.175c2.087-3.13 4.635-3.545 6.26-2.087 1.626 1.46-2.086 1.044-4.173 3.13-2.087 2.088 0 6.26-2.087 6.26s-2.087-4.172 0-7.303z" fill="#fcffff" fill-rule="evenodd" opacity=".7"/><path d="M2.087 20.87l4.174-4.174" opacity=".5" stroke="#fcffff" stroke-width="1.043" stroke-linecap="round" stroke-linejoin="round" overflow="visible"/></symbol><symbol id="icon-miconselectremove" viewBox="0 0 24 24"><path d="M2.538 2.538h12.924v12.924H2.538z" fill="#fce94f" overflow="visible" stroke="#c4a000" stroke-linecap="round" stroke-width="1.077"/><g><rect fill="#d26464" height="10" rx="2.011" width="10" x="14" y="14"/><path d="M16 19h6" fill="#fcffff" fill-rule="evenodd" stroke="#e6e6e6" stroke-width="2" stroke-linecap="round" stroke-linejoin="round" overflow="visible"/><path d="M15 19h8v-2c0-2-.5-2-4-2s-4 0-4 2v2z" fill="#fcffff" fill-rule="evenodd" opacity=".3"/></g></symbol><symbol id="icon-rendererrulebasedsymbol" viewBox="0 0 16 16"><path d="M1.5 1.5h10v3h-10z" fill="#dedede" stroke="#5a5a5a"/><path d="M4.5 6.5h10v3h-10zM4.5 11.5h10v3h-10z" fill="#00ba58" stroke="#005338"/><path d="M1.5 6v7.5h2M1 8h2.5" fill="none" stroke="#8c8c8c"/></symbol></defs></svg>