<svg xmlns="http://www.w3.org/2000/svg"><defs><symbol id="icon-add-wms" viewBox="0 0 48 48"><path d="M17.388 18.564l-12.495-5.8c-1.19-.595-1.19-2.23 0-2.826l12.495-5.653c.892-.447 2.083-.447 2.975 0L32.71 9.938c1.19.595 1.19 2.23 0 2.826l-12.347 5.8c-.892.448-2.083.448-2.975 0z"/><path d="M18.875 14.4h.298l9.52 4.462-9.52 4.463h-.595l-9.52-4.463 9.52-4.462h.297m0-2.975c-.446 0-1.04.15-1.487.297L5.04 17.375c-1.188.595-1.188 2.23 0 2.826l12.348 5.654c.446.147 1.042.297 1.487.297s1.042-.148 1.487-.296L32.71 20.2c1.188-.594 1.188-2.23 0-2.825L20.36 11.722c-.445-.148-1.04-.297-1.487-.297z"/><path fill="none" d="M32.56 27.787L24.67 31.4v1.674h4.295v4.293h4.293v-4.292h4.295V28.78h-4.294v-1.476c-.18.192-.4.365-.695.483zM33.256 25.196v-.71H31.84l1.02.476c.152.058.283.138.396.234z"/><path d="M18.64 30.762h-.062l-9.52-4.46 6.098-2.827-3.57-1.637-6.693 3.124c-1.19.595-1.19 2.23 0 2.825L17.24 33.44c.445.148 1.04.297 1.487.297.068 0 .152-.022.226-.028-.204-.896-.32-1.823-.32-2.78-.002-.057.006-.112.007-.168z"/><path d="M31.11 18.45c-6.835 0-12.38 5.498-12.47 12.312h.532l9.52-4.46-6.098-2.827 3.57-1.637 5.677 2.65h1.416v.708c.592.504.612 1.458 0 2.108v1.476h4.295v4.295h-4.294v4.293h-4.293v-4.293h-4.295V31.4l-4.453 2.04c-.38.126-.852.233-1.263.27 1.265 5.552 6.223 9.7 12.157 9.7 6.89 0 12.478-5.587 12.478-12.48 0-6.893-5.587-12.48-12.48-12.48z"/><path d="M33.256 25.196v2.108c.612-.65.592-1.604 0-2.108zM24.668 31.4v-2.62h4.295v-4.293h2.878l-5.675-2.65-3.57 1.638L28.69 26.3l-9.518 4.462H18.64c-.002.057-.01.11-.01.168 0 .957.118 1.885.32 2.78.412-.036.884-.144 1.264-.27l4.454-2.04z"/></symbol><symbol id="icon-app-menu-shield" viewBox="0 0 50 50"><path d="M37.5 4.167h-25c-2.295 0-4.167 1.87-4.167 4.166V31.25c0 1.31.626 2.54 1.668 3.337l15 11.246 14.998-11.246c1.042-.798 1.668-2.026 1.668-3.337V8.333c0-2.295-1.87-4.166-4.166-4.166z"/><g fill="none" stroke="#FFF" stroke-width="3" stroke-miterlimit="10"><path d="M14.55 13.51h21.6M14.55 20.51h21.6M14.55 27.51h21.6"/></g></symbol><symbol id="icon-bing-2" viewBox="0 0 32 32"><path d="M9 6c1.527.465 3.055.934 4.582 1.402-.004 3.77.004 7.54-.004 11.31-1.484 1.31-2.957 2.636-4.437 3.952 3.618-1.898 7.23-3.805 10.844-5.707-1-.457-2.007-.906-3.007-1.363-.676-1.473-1.36-2.942-2.036-4.414 3.357 1.023 6.708 2.054 10.064 3.082v4.918c-3.817 2.273-7.637 4.543-11.45 6.82-1.52-1.066-3.034-2.13-4.554-3.19V6M7 3.3v20.552l.852.593 3.07 2.153 1.484 1.04 1.06.74 1.112-.66 6.31-3.76 5.14-3.063.976-.582V12.78l-1.414-.428-2.195-.676c-2.606-.797-5.207-1.598-7.813-2.39v-3.36l-1.41-.434c-1.53-.472-3.06-.94-4.59-1.406z"/></symbol><symbol id="icon-bing" viewBox="0 0 24 24"><path d="M4 2c1.527.465 3.055.934 4.582 1.402-.004 3.77.004 7.54-.004 11.31-1.484 1.31-2.957 2.636-4.437 3.952 3.618-1.898 7.23-3.805 10.844-5.707-1-.457-2.007-.906-3.007-1.363-.676-1.473-1.36-2.942-2.036-4.41 3.357 1.023 6.708 2.05 10.064 3.078v4.918L8.554 22C7.035 20.937 5.52 19.87 4 18.81V2z"/></symbol><symbol id="icon-center-direction" viewBox="0 0 24 24"><path d="M11 1v2.03C6.796 3.484 3.483 6.797 3.03 11H1v2h2.03c.453 4.204 3.766 7.517 7.97 7.97V23h2v-2.03c4.204-.453 7.517-3.766 7.97-7.97H23v-2h-2.03c-.453-4.204-3.766-7.517-7.97-7.97V1h-2zm1 4c3.9 0 7 3.1 7 7s-3.1 7-7 7-7-3.1-7-7 3.1-7 7-7zm0 3c-2.21 0-4 1.79-4 4s1.79 4 4 4 4-1.79 4-4-1.79-4-4-4z"/></symbol><symbol id="icon-circled-female-user" viewBox="0 0 32 32"><path d="M16 3C8.832 3 3 8.832 3 16s5.832 13 13 13 13-5.832 13-13S23.168 3 16 3zm0 2c6.086 0 11 4.914 11 11s-4.914 11-11 11S5 22.086 5 16 9.914 5 16 5zm0 3c-2.75 0-5 2.25-5 5 0 1.516.707 2.863 1.78 3.78C10.53 17.95 9 20.3 9 23h2c0-2.773 2.227-5 5-5s5 2.227 5 5h2c0-2.7-1.53-5.05-3.78-6.22C20.292 15.864 21 14.517 21 13c0-2.75-2.25-5-5-5zm0 2c1.668 0 3 1.332 3 3s-1.332 3-3 3-3-1.332-3-3 1.332-3 3-3z"/></symbol><symbol id="icon-close-pane-filled" viewBox="0 0 50 50"><path d="M5 6C3.348 6 2 7.348 2 9v32c0 1.652 1.348 3 3 3h40c1.652 0 3-1.348 3-3V9c0-1.652-1.348-3-3-3zm0 2h24v34H5c-.55 0-1-.45-1-1V9c0-.55.45-1 1-1zm13.996 10.988c-.406 0-.773.246-.93.62-.156.376-.066.81.223 1.095L21.546 24H9c-.36-.004-.695.184-.88.496-.18.313-.18.695 0 1.008.185.312.52.5.88.496h12.547l-3.258 3.297c-.26.254-.364.625-.27.976.093.348.367.622.718.71.352.09.723-.018.973-.28L25.35 25l-5.637-5.703c-.187-.195-.444-.305-.714-.31z"/></symbol><symbol id="icon-cursor" viewBox="0 0 24 24"><path d="M7 2l12 11.2-5.8.5 3.3 7.3-2.2 1-3.2-7.4L7 18.5V2"/></symbol><symbol id="icon-erase" viewBox="0 0 24 24"><path d="M14.594 2.063c-.727 0-1.45.292-2 .843l-9.688 9.688c-1.105 1.105-1.105 2.894 0 4L7 20.72c.184.178.43.276.688.28H22v-2h-8.28l7.5-7.5c1.104-1.105 1.104-2.895 0-4l-4.626-4.594c-.55-.55-1.274-.844-2-.844zM8.814 9.5l5.78 5.78-3.72 3.72h-2.75l-3.812-3.813c-.296-.296-.296-.89 0-1.187z"/></symbol><symbol id="icon-globe" viewBox="0 0 32 32"><path d="M16 4C9.383 4 4 9.383 4 16s5.383 12 12 12 12-5.383 12-12S22.617 4 16 4zm0 2c1.97 0 3.797.586 5.344 1.563l-.813.093.19 2-1.064-.47-.875.752.157 2.062 2.157-.688 2.687.876-.686 1.25-1.625-1-1.75.25-1.72 1.28-.97 3 1.94 1.595s1.987-.344 2.093-.344c.105 0 .843 1.81.843 1.81l-1.593 5c-1.3.622-2.77.97-4.313.97-.316 0-.63-.035-.938-.063l-1.093-1.906 1.06-4L11 17H7.28l-.968-1.97L9 12.907 13 11l-.594-2.656 1.72-.375.812 1.124 3-.563-.532-2.31-2.218-.157c.265-.02.54-.063.812-.063zm-1.125.063l-1.563.656-.75-.126c.74-.27 1.504-.442 2.313-.532zM6.062 16.78l.97 1.126v2.063l1.874 2.06h1.156l2.844 3.5c-3.773-1.22-6.527-4.64-6.844-8.75z"/></symbol><symbol id="icon-google-maps" viewBox="0 0 50 50"><path d="M36 2c-3.54 0-6.707 1.555-8.906 4H6.344C3.96 6 2 7.96 2 10.344V43.22c-.016.104-.016.206 0 .31v.126C2 46.04 3.96 48 6.344 48h33.312C42.04 48 44 46.04 44 43.656v-.093c.016-.106.016-.208 0-.313V23.437c2.105-2.804 4-5.542 4-9.437 0-6.617-5.383-12-12-12zm0 2c5.535 0 10 4.465 10 10 0 3.414-1.69 5.69-3.906 8.625-2.12 2.81-4.617 6.2-6.094 11.313-1.477-5.114-3.973-8.504-6.094-11.313-.824-1.094-1.597-2.09-2.218-3.094v-.03c-.012-.02-.02-.043-.032-.063-.043-.164-.13-.316-.25-.437C26.543 17.48 26 15.922 26 14c0-5.535 4.465-10 10-10zM6.344 8h19.28C24.6 9.766 24 11.813 24 14c0 2.137.578 3.918 1.438 5.563L4 40.968V10.343C4 9.044 5.043 8 6.344 8zm5.78 2C8.75 10 6 12.75 6 16.125s2.75 6.094 6.125 6.094c5.344 0 6.254-4.806 5.75-7.19h-5.75v2.345h3.313c-.434 1.414-1.602 2.438-3.313 2.438-2.035 0-3.688-1.653-3.688-3.688s1.653-3.688 3.688-3.688c.914 0 1.73.325 2.375.876l1.72-1.72C15.132 10.606 13.71 10 12.124 10zM36 10c-2.2 0-4 1.8-4 4s1.8 4 4 4 4-1.8 4-4-1.8-4-4-4zm0 2c1.117 0 2 .883 2 2s-.883 2-2 2-2-.883-2-2 .883-2 2-2zm-9.5 9.313c.563.847 1.148 1.695 1.78 2.53.01.012.025.02.032.032L6.22 45.97c-1.197-.068-2.122-.993-2.19-2.19zm3 4.187c1.43 1.953 2.855 4.12 3.938 6.938L28 27zm12.5.656V40.97l-4.656-4.626c.047-.082.097-.176.125-.25.163-.434.143-.72.218-1 .996-3.828 2.624-6.57 4.312-8.938zm-15.406 2.25L41.97 43.78c-.068 1.197-.993 2.122-2.19 2.19L24.407 30.593zM23 32l13.97 14H9.03z"/></symbol><symbol id="icon-google" viewBox="0 0 24 24"><path d="M12.547 10.238v3.82h5.44c-.71 2.317-2.643 3.973-5.44 3.973-3.332 0-6.035-2.698-6.035-6.03 0-3.332 2.703-6.03 6.035-6.03 1.496 0 2.863.546 3.918 1.452l2.816-2.817C17.505 2.988 15.14 2 12.548 2 7.02 2 2.543 6.477 2.543 12S7.02 22 12.547 22c8.394 0 10.246-7.852 9.426-11.746z"/></symbol><symbol id="icon-misura-area" viewBox="0 0 48 48"><path d="M29.625 3.875c-1.53 0-3.094.53-4.25 1.688L5.813 25.188c-2.344 2.344-2.453 6.22 0 8.438l.063.063 8.5 8.5c2.305 2.304 6.133 2.304 8.438 0L42.44 22.625c2.304-2.305 2.304-6.133 0-8.438l-8.626-8.625c-1.158-1.157-2.658-1.688-4.19-1.688zm0 3.875c.47 0 .93.242 1.375.688L39.563 17c.89.89.89 1.922 0 2.813L20 39.375c-.89.89-1.922.89-2.813 0L8.5 30.688c-.68-.594-.71-1.852.125-2.688l.813-.813 4.875 4.875 2.125-2.125-4.875-4.875 1.875-1.875 2.875 2.875 2.125-2.125-2.875-2.875 1.875-1.875 4.875 4.875 2.125-2.125-4.875-4.875 1.875-1.875 2.875 2.875 2.125-2.125-2.875-2.875 1.875-1.875 4.875 4.875 2.125-2.125-4.875-4.875.625-.625c.445-.445.968-.687 1.437-.687z"/><path fill="#FFF" d="M15.844 45.66l29.297-.415.104-30.756-20.538 9.382"/><path fill="none" stroke="#000" stroke-width="2" stroke-miterlimit="10" d="M28.047 28.677l15-6v20h-20z"/><circle cx="28.037" cy="28.651" r="2.476"/><path d="M45.658 22.767c0 1.37-1.108 2.477-2.477 2.477-1.365 0-2.474-1.108-2.474-2.477 0-1.365 1.108-2.476 2.475-2.476 1.37.002 2.478 1.112 2.478 2.477z"/><circle cx="23.373" cy="42.551" r="2.476"/><path d="M45.34 42.233c0 1.368-1.11 2.477-2.48 2.477-1.364 0-2.476-1.108-2.476-2.477 0-1.365 1.11-2.476 2.476-2.476 1.37 0 2.48 1.11 2.48 2.476z"/></symbol><symbol id="icon-zoom-back" viewBox="0 0 512 512"><path fill="#2a8aa1" d="M192 42.666c-82.475 0-149.333 66.86-149.333 149.334S109.525 341.333 192 341.333c36.747 0 69.986-13.32 96-35.333l10.666 10.666v18.667l134 134 36.667-36.667-134-134h-18.667L306 288c22.014-26.015 35.334-59.253 35.334-96 0-82.474-66.86-149.334-149.334-149.334zm0 42.667c58.816 0 106.666 47.85 106.666 106.667 0 58.815-47.85 106.666-106.666 106.666S85.333 250.816 85.333 192c0-58.816 47.85-106.667 106.667-106.667z"/><path fill="none" stroke="#666" stroke-width="16" stroke-miterlimit="10" d="M220.133 247.533L165.1 192.5l55.033-55.033"/></symbol><symbol id="icon-zoom-forward" viewBox="0 0 512 512"><path fill="#2a8aa1" d="M192 42.666c-82.475 0-149.333 66.86-149.333 149.334S109.525 341.333 192 341.333c36.747 0 69.986-13.32 96-35.333l10.666 10.666v18.667l134 134 36.667-36.667-134-134h-18.667L306 288c22.014-26.015 35.334-59.253 35.334-96 0-82.474-66.86-149.334-149.334-149.334zm0 42.667c58.816 0 106.666 47.85 106.666 106.667 0 58.815-47.85 106.666-106.666 106.666S85.333 250.816 85.333 192c0-58.816 47.85-106.667 106.667-106.667z"/><path fill="none" stroke="#666" stroke-width="16" stroke-miterlimit="10" d="M165.1 137.467l55.033 55.033-55.034 55.033"/></symbol><symbol id="icon-zoom-selection" viewBox="0 0 500 500"><path fill="#F7F7F7" d="M53.292 48.104H377.51v334.71H53.292z"/><g fill="#666"><path d="M407.46 93.802h-31.25v-31.25h-31.25v-31.25h62.5M63.708 93.802h-31.25v-62.5h62.5v31.25h-31.25M407.46 343.802h-31.25v31.25h-31.25v31.25h62.5M63.708 343.802h-31.25v62.5h62.5v-31.25h-31.25M32.458 135.47h31.25v62.5h-31.25zM32.458 239.635h31.25v62.5h-31.25zM376.21 135.47h31.25v62.5h-31.25zM376.21 239.635h31.25v62.5h-31.25zM240.792 31.302h62.5v31.25h-62.5zM136.625 31.302h62.5v31.25h-62.5zM240.792 375.052h62.5v31.25h-62.5zM136.625 375.052h62.5v31.25h-62.5z"/></g><g fill="#E3F2FD"><path d="M492.917-533.27v-125.865l-75.302 62.937"/><path d="M611.27-547.792c0 38.74-31.207 69.927-69.926 69.927h-16.146v-43.02h16.146c15.052 0 26.886-11.845 26.886-26.907 0-15.052-11.834-26.896-26.886-26.896h-64.552v-43.03h64.552c38.72 0 69.927 31.197 69.927 69.926z"/></g><path fill="#2a8aa1" d="M219.042 68.552c-82.475 0-149.334 66.86-149.334 149.334s66.86 149.333 149.334 149.333c36.747 0 69.986-13.32 96-35.335l10.666 10.666v18.67l134 134 36.667-36.67-134-134H343.71l-10.666-10.665c22.014-26.014 35.334-59.252 35.334-96 0-82.474-66.86-149.333-149.334-149.333zm0 42.667c58.816 0 106.666 47.85 106.666 106.666 0 58.816-47.85 106.666-106.666 106.666s-106.666-47.85-106.666-106.666c0-58.817 47.85-106.667 106.666-106.667z"/></symbol><symbol id="icon-info-shield" viewBox="0 0 50 50"><path d="M12.5 4.167c-2.295 0-4.167 1.87-4.167 4.166V31.25c0 1.253.65 2.49 1.692 3.32L25 45.833 39.975 34.57c1.04-.83 1.69-2.067 1.69-3.32V8.333c0-2.295-1.87-4.166-4.165-4.166h-25zm4.167 12.5v10.416h16.667V16.667H16.667z"/><path fill="#FFF" d="M25.208 10.333c-6.283 0-11.375 5.092-11.375 11.375 0 6.282 5.092 11.375 11.375 11.374 6.283 0 11.376-5.092 11.376-11.374 0-6.283-5.093-11.375-11.376-11.375zm1.744 17.063h-3.465V20.57h3.465v6.826zm0-9.1h-3.465V16.02h3.465v2.275z"/></symbol><symbol id="icon-layers" viewBox="0 0 24 24"><path d="M12 1.97c-.352 0-.7.07-1 .218L2.594 6c-.8.398-.8 1.508 0 1.906L6 9.5 2.687 11c-.8.398-.8 1.508 0 1.906l3.407 1.563-3.5 1.624c-.8.398-.8 1.508 0 1.906l8.312 3.813c.3.1.7.187 1 .187.3 0 .7-.086 1-.188L21.187 18c1-.398 1.02-1.605.22-1.906l-3.5-1.625 3.405-1.564c.8-.398.8-1.508 0-1.906L17.97 9.47l3.343-1.564c.8-.398.8-1.508 0-1.906L13 2.187c-.3-.148-.648-.218-1-.218zm-3.594 8.624L11 11.814c.602.3 1.398.3 2-.002l2.594-1.218 3 1.406-6.407 3h-.374l-6.407-3zm.094 4.97l2.5 1.123c.3.102.7.22 1 .22.3 0 .7-.118 1-.22l2.5-1.125L18.594 17l-6.407 3h-.374l-6.407-3z"/></symbol><symbol id="icon-length" viewBox="0 0 24 24"><path d="M14.813 1.938c-.766 0-1.547.265-2.126.843l-9.78 9.814c-1.173 1.172-1.227 3.11 0 4.22.01.01.02.018.03.03l4.25 4.25c1.153 1.152 3.067 1.152 4.22 0l9.812-9.782c1.15-1.152 1.15-3.066 0-4.218L16.905 2.78c-.578-.577-1.328-.842-2.093-.842zm0 1.937c.234 0 .464.12.687.344l4.28 4.28c.447.445.447.96 0 1.406L10 19.687c-.445.446-.96.446-1.406 0L4.25 15.345c-.34-.297-.355-.926.063-1.344l.406-.406 2.436 2.437 1.063-1.06-2.44-2.44.94-.936 1.436 1.437 1.063-1.06-1.44-1.44.94-.936 2.436 2.437 1.063-1.06-2.44-2.44.94-.936 1.436 1.437 1.063-1.06-1.44-1.44.94-.936 2.436 2.437 1.063-1.06-2.44-2.44.314-.31c.222-.224.484-.345.72-.345z"/></symbol><symbol id="icon-map" viewBox="0 0 24 24"><path d="M0 0v20l8 4 8-4 8 4V4l-8-4-8 3zm15.906 2.188l.094.03v15.595l-.906.375L9 21.313V4.688zm1.094.53l5 2.47v15.5l-5-2.532zM2 2.907l5.313 2L8 5.094v16.718l-6-3z"/></symbol><symbol id="icon-multiply-filled" viewBox="0 0 50 50"><path d="M15.125 12.28l-2.844 2.845L22.22 25l-9.94 9.875 2.845 2.844 9.938-9.876L35 37.72l2.813-2.845L27.905 25l9.907-9.875L35 12.28l-9.938 9.876z"/></symbol><symbol id="icon-open-pane-filled" viewBox="0 0 50 50"><path d="M5 6C3.348 6 2 7.348 2 9v32c0 1.652 1.348 3 3 3h40c1.652 0 3-1.348 3-3V9c0-1.652-1.348-3-3-3zm0 2h24v34H5c-.55 0-1-.45-1-1V9c0-.55.45-1 1-1zm8.918 10.988c-.258.012-.504.12-.684.31L7.594 25l5.64 5.703c.246.262.62.37.97.28.35-.088.624-.362.718-.71.094-.35-.008-.722-.266-.976L11.396 26H23.94c.365.004.7-.184.88-.496.184-.313.184-.695 0-1.008-.18-.312-.515-.5-.88-.496H11.396l3.26-3.297c.294-.29.38-.73.216-1.11-.16-.378-.538-.616-.952-.605z"/></symbol><symbol id="icon-osm" viewBox="0 0 26 26"><path d="M8 0C5.797 0 4 1.797 4 4v7H1c-.55 0-1 .45-1 1v6c0 .55.45 1 1 1h3v3c0 2.203 1.797 4 4 4h12c2.203 0 4-1.797 4-4V8c0-1.063-.973-2.07-2.72-3.78-.24-.24-.503-.505-.75-.75-.245-.247-.51-.478-.75-.72C18.07 1.004 17.063 0 16 0zm0 2h7.28c.724.184.72 1.05.72 1.938V7c0 .55.45 1 1 1h3c.996 0 2 .004 2 1v13c0 1.105-.895 2-2 2H8c-1.102 0-2-.895-2-2v-3h12c.55 0 1-.45 1-1v-6c0-.55-.45-1-1-1H6V4c0-1.102.898-2 2-2zm-3.47 9.906c1.16 0 1.845 1.11 1.845 3 0 2.758-1.215 3.156-1.938 3.156-1.183 0-1.875-1.152-1.875-3.093 0-1.904.747-3.064 1.97-3.064zm4.282 0c.39 0 .75.106.938.22.074.046.113.132.094.218l-.156.78c-.016.067-.063.13-.126.157-.062.03-.128.005-.187-.03-.117-.074-.32-.156-.594-.156-.4 0-.53.28-.53.5 0 .312.105.44.688.812.726.477 1.093 1.07 1.093 1.78-.003 1.1-.796 1.877-1.936 1.877-.426 0-.89-.125-1.125-.282-.072-.046-.11-.104-.095-.186l.156-.782c.013-.066.064-.128.126-.156.063-.027.13-.004.188.032.183.11.508.187.75.187.414 0 .656-.22.656-.594 0-.35-.22-.538-.656-.843-.73-.464-1.156-1.11-1.156-1.75 0-1.066.765-1.78 1.875-1.78zm2.813.063h.938c.097 0 .164.06.187.155l.563 2.28.218.94c.064-.298.11-.595.19-.94l.53-2.28c.02-.094.12-.156.22-.156h.967c.11 0 .18.077.188.186l.344 5.563c.007.022 0 .065 0 .093-.005.117-.075.187-.19.187h-.842c-.11 0-.184-.078-.188-.188l-.125-2.187c-.008-.11.008-.22 0-.344-.016.072-.047.154-.063.22l-.593 2.28c-.025.095-.095.157-.19.157h-.624c-.094 0-.164-.062-.187-.156l-.564-2.218c-.023-.093-.04-.214-.062-.312-.008.14-.024.277-.03.406l-.095 2.156c-.01.11-.11.188-.22.188h-.78c-.06 0-.087-.02-.126-.063-.04-.042-.067-.097-.063-.156l.376-5.624c.008-.11.11-.187.22-.187zM4.5 13.093c-.078 0-.156.03-.22.094-.24.242-.382.92-.374 1.78-.008.9.133 1.567.375 1.813.064.068.142.095.22.095.348 0 .563-.746.563-1.938 0-1.152-.215-1.843-.563-1.843z"/></symbol><symbol id="icon-print" viewBox="0 0 24 24"><path d="M6 2v4h12V2H6zm0 5c-2.2 0-4 1.8-4 4v6h4v5h12v-5h4v-6c0-2.2-1.8-4-4-4H6zm13 2c.6 0 1 .4 1 1s-.4 1-1 1-1-.4-1-1 .4-1 1-1zM8 15h8v5H8v-5z"/></symbol><symbol id="icon-restore-window" viewBox="0 0 50 50"><path d="M7 2C4.25 2 2 4.25 2 7v36c0 2.75 2.25 5 5 5h36c2.75 0 5-2.25 5-5V7c0-2.75-2.25-5-5-5zm0 2h36c1.668 0 3 1.332 3 3v36c0 1.668-1.332 3-3 3H7c-1.668 0-3-1.332-3-3V7c0-1.668 1.332-3 3-3zm13 6c-1.094 0-2 .906-2 2v16c0 1.094.906 2 2 2h18c1.094 0 2-.906 2-2V12c0-1.094-.906-2-2-2zm0 2h18v2H20zm0 4h18v12H20zm-8 4c-1.094 0-2 .906-2 2v16c0 1.094.906 2 2 2h20c1.094 0 2-.906 2-2v-7h-2v7H12V26h5v-2h-5v-2h5v-2z"/></symbol><symbol id="icon-rotate-filled" viewBox="0 0 50 50"><path d="M25 6c-4.5 0-8.7 1.6-12 4.4V8c0-1.1-.9-2-2-2s-2 .9-2 2v9h9c1.1 0 2-.9 2-2s-.9-2-2-2h-1.8c2.5-1.9 5.6-3 8.8-3 8.3 0 15 7 15 15.5S33.3 41 25 41c-8 0-14.8-6.7-15-15 0-1.1-.9-2-2-2s-2 .9-2 2c.3 10.5 8.8 19 19 19 10.5 0 19-8.7 19-19.5S35.5 6 25 6z"/></symbol><symbol id="icon-search-shield" viewBox="0 0 50 50"><path d="M37.5 4.167h-25c-2.295 0-4.167 1.87-4.167 4.166V31.25c0 1.31.626 2.54 1.668 3.337l15 11.246 14.998-11.246c1.042-.798 1.668-2.026 1.668-3.337V8.333c0-2.295-1.87-4.166-4.166-4.166z"/><path fill="#FFF" d="M21.5 8.667c-4.548 0-8.167 3.617-8.167 8.167 0 4.548 3.62 8.167 8.167 8.167 2.01 0 3.837-.715 5.25-1.895l.583.583v.948L34.7 32l1.967-1.97-7.365-7.365h-1.02l-.547-.546c1.2-1.423 1.933-3.26 1.933-5.288-.002-4.548-3.62-8.165-8.168-8.165zm0 2.333c3.268 0 5.833 2.565 5.833 5.833 0 3.268-2.565 5.833-5.833 5.833s-5.833-2.565-5.833-5.833c0-3.268 2.566-5.833 5.833-5.833z"/></symbol><symbol id="icon-worldwide-location" viewBox="0 0 24 24"><path d="M12 2C6.5 2 2 6.5 2 12s4.5 10 10 10 10-4.5 10-10v-1c-.6.9-1.188 1.706-1.688 2.406-.4 2.2-1.612 4.106-3.312 5.406-.1-.3-.212-.7-.313-1-.1-.4-.175-.818-.375-1.218-.1-.4-.206-.794-.406-1.094-.1-.1-.3-.213-.5-.313-.7-.2-1.594.107-2.094-.593-.2-.3-.224-.6-.124-1 .2-.3.3-.606.5-.906.2-.4.524-.876.624-1.376-.8-1.2-1.6-2.606-2-3.906h-.124c-.1 0-.088.006-.188-.093-.2-.2-.287-.7-.188-1 0-.5.288-.813.188-1.313 0-.1-.094-.906-.094-.906-.3 0-.82 0-.72-.5l.002-.094H12.5c.2-.6.606-1.1.906-1.5H12zm6 0c-2.2 0-4 1.8-4 4s4 7 4 7 4-4.8 4-7-1.8-4-4-4zm0 2.5c.8 0 1.5.7 1.5 1.5s-.7 1.5-1.5 1.5-1.5-.7-1.5-1.5.7-1.5 1.5-1.5zM8 5.094c.363-.025.7-.006 1 .093.3.1.613.3.813.5.2.2.5.513.5.813 0 .1-.026.188-.126.188-.1.1-.18.125-.28.125-.3 0-.613-.026-.813-.125-.1-.1-.3-.276-.5-.375-.5-.2-1.4 1.1-1.5 1.5-.1.3-.094.993.406 1.093.3 0 .988-.612 1.188-.812.2-.1.3-.18.5-.28.8-.1 1.425.58 1.624 1.28.2.8-1.212 1.394-1.812 1.594-.2.1-.3-.1-.5 0-.5.2-1.094.906-1.094 1.406 0 .5-.12 1-.218 1.5-.1 0-.188-.094-.188-.094v-.188c0-.3-.106-.612-.406-.812-.1 0-.088-.094-.188-.094-.3-.1-.606-.394-.906-.094-.2.2-.406.482-.406.782 0 .1-.006.212.093.312.2.1.425 0 .625 0 .1 0 .182.18.282.28.2.302.318.814.718.814h2.001c.3.1.8.206 1 .406.1.2.087.394.187.594.4.5 1.088.488 1.688.688.2.1.312.206.312.406 0 .3-.088.7-.188 1-.1.3-.206.706-.406.906-.2.2-.394.306-.594.406-.4.2-.612.607-.812.907 0 0-.088.18-.188.28-.8-.2-1.518-.5-2.218-1v-.187c-.1-.4-.182-.7-.282-1-.2-.5-.525-1.093-.625-1.593 0-.5.113-1.007-.187-1.407-.3-.5-1.094-.512-1.594-.812-.4-.4-.912-.78-1.312-1.28v-.814c0-2.7 1.312-5.088 3.312-6.688.35-.1.732-.193 1.094-.218z"/></symbol><symbol id="icon-zoom-in" viewBox="0 0 24 24"><path d="M9 2C5.134 2 2 5.134 2 9s3.134 7 7 7c1.723 0 3.28-.624 4.5-1.656l.5.5v.875L20.28 22 22 20.28 15.72 14h-.876l-.5-.5C15.376 12.28 16 10.723 16 9c0-3.866-3.134-7-7-7zm0 2c2.757 0 5 2.243 5 5s-2.243 5-5 5-5-2.243-5-5 2.243-5 5-5zM8 6v2H6v2h2v2h2v-2h2V8h-2V6H8z"/></symbol><symbol id="icon-zoom-out" viewBox="0 0 24 24"><path d="M9 2C5.134 2 2 5.134 2 9s3.134 7 7 7c1.723 0 3.28-.624 4.5-1.656l.5.5v.875L20.28 22 22 20.28 15.72 14h-.876l-.5-.5C15.376 12.28 16 10.723 16 9c0-3.866-3.134-7-7-7zm0 2c2.757 0 5 2.243 5 5s-2.243 5-5 5-5-2.243-5-5 2.243-5 5-5zM6 8v2h6V8H6z"/></symbol><symbol id="icon-zoom-to-extents-filled" viewBox="0 0 50 50"><path d="M21 3C11.626 3 4 10.626 4 20c0 9.374 7.626 17 17 17 9.374 0 17-7.626 17-17 0-9.374-7.626-17-17-17zm-8 9h6l-2.28 2.28L21 18.595l4.28-4.313L23 12h6v6l-2.28-2.28L22.405 20l4.313 4.28L29 22v6h-6l2.28-2.28L21 21.405l-4.28 4.313L19 28h-6v-6l2.28 2.28L19.595 20l-4.313-4.28L13 18v-6zm22.313 20.47c-.88 1.007-1.867 1.915-2.938 2.718l11.72 11.718 2.81-2.812L35.313 32.47z"/></symbol><symbol id="icon-arrow-hand" viewBox="0 0 50 50"><path d="M0,0l24,22.4l-11.6,1L19,38L14.6,40L8.2,25.2L0,33V0"/><path d="M36.108,30.351l-5.306-0.816c-0.407-0.102-0.816-0.204-1.326-0.204H28.15c-1.123,0-2.041,0.715-2.041,1.633v3.061  c0,0-2.856-1.938-3.366-1.938c-1.326,0-1.633,1.428-1.633,1.428l5.102,6.734c0.51,0.815,1.53,1.326,2.551,1.326h4.489  c2.244,0,4.081-1.837,4.081-4.081v-5.612C37.333,31.269,36.822,30.657,36.108,30.351z"/><rect x="26.109" y="22.188" width="2.041" height="11.224"/><rect x="29.17" y="21.168" width="2.04" height="11.224"/><rect x="32.231" y="22.188" width="2.04" height="11.224"/><rect x="35.292" y="24.229" width="2.041" height="11.224"/></symbol><symbol id="icon-help" viewBox="0 0 24 24"><path d="M13,17h-2v-2h2V17z"/><g><path d="M12,4c4.4,0,8,3.6,8,8s-3.6,8-8,8c-4.4,0-8-3.6-8-8S7.6,4,12,4 M12,2C6.5,2,2,6.5,2,12c0,5.5,4.5,10,10,10   c5.5,0,10-4.5,10-10C22,6.5,17.5,2,12,2L12,2z"/></g><g><path d="M11,14c0-2.6,2-2.1,2-4.2c0-0.4-0.2-1.3-1-1.3c-0.3,0-1,0.1-1,1.5H9c0,0-0.4-3,2.9-3C14.5,7,15,8.9,15,9.8   c0,2.4-2,2.5-2,4.2H11z"/></g></symbol></defs></svg>