<?xml version="1.0" encoding="utf-8"?>
<!-- Generator: Adobe Illustrator 15.1.0, SVG Export Plug-In . SVG Version: 6.00 Build 0)  -->
<!DOCTYPE svg PUBLIC "-//W3C//DTD SVG 1.1//EN" "http://www.w3.org/Graphics/SVG/1.1/DTD/svg11.dtd">
<svg version="1.1" id="Livello_1" xmlns="http://www.w3.org/2000/svg" xmlns:xlink="http://www.w3.org/1999/xlink" x="0px" y="0px"
	 width="50px" height="50px" viewBox="0 0 50 50" enable-background="new 0 0 50 50" xml:space="preserve">
<g id="surface1">
	<path fill="#9E9E9E" d="M3,0C1.348,0,0,1.348,0,3v24c0,1.652,1.348,3,3,3h14v-2H3c-0.551,0-1-0.449-1-1V7h30v12h2V3
		c0-1.652-1.348-3-3-3H3z M8,12c-1.16,0-2,0.84-2,2v6c0,1.16,0.84,2,2,2h5c1.16,0,2-0.84,2-2v-6c0-1.16-0.84-2-2-2H8z M21,12
		c-1.16,0-2,0.84-2,2v5.125C19.32,19.047,19.648,19,20,19h8v-5c0-1.16-0.84-2-2-2H21z M20,20c-0.523,0-1.059,0.184-1.438,0.563
		S18,21.477,18,22v26c0,0.145,0.008,0.273,0.031,0.406c0.027,0.145,0.07,0.27,0.125,0.406c0.043,0.109,0.094,0.215,0.156,0.313
		c0.141,0.223,0.313,0.418,0.531,0.563c0.008,0.004,0.023-0.004,0.031,0c0.098,0.063,0.199,0.113,0.313,0.156
		c0.137,0.055,0.262,0.098,0.406,0.125C19.727,49.992,19.855,50,20,50h28c0.145,0,0.273-0.008,0.406-0.031
		c0.145-0.027,0.27-0.07,0.406-0.125c0.055-0.023,0.105-0.035,0.156-0.063c0.172-0.086,0.332-0.207,0.469-0.344
		s0.258-0.297,0.344-0.469c0.027-0.051,0.039-0.102,0.063-0.156c0.055-0.137,0.098-0.262,0.125-0.406C49.992,48.273,50,48.145,50,48
		V22c0-0.523-0.184-1.059-0.563-1.438S48.523,20,48,20H20z M20,22h28v4H20V22z M25,35h5c0.602,0,1,0.398,1,1v6c0,0.602-0.398,1-1,1
		h-5c-0.602,0-1-0.398-1-1v-6C24,35.398,24.398,35,25,35z M38,35h5c0.602,0,1,0.398,1,1v6c0,0.602-0.398,1-1,1h-5
		c-0.602,0-1-0.398-1-1v-6C37,35.398,37.398,35,38,35z"/>
</g>
</svg>
