<?xml version="1.0" encoding="utf-8"?>
<!-- Generator: Adobe Illustrator 15.1.0, SVG Export Plug-In . SVG Version: 6.00 Build 0)  -->
<!DOCTYPE svg PUBLIC "-//W3C//DTD SVG 1.1//EN" "http://www.w3.org/Graphics/SVG/1.1/DTD/svg11.dtd">
<svg version="1.1" id="Livello_1" xmlns="http://www.w3.org/2000/svg" xmlns:xlink="http://www.w3.org/1999/xlink" x="0px" y="0px"
	 width="64px" height="64px" viewBox="0 0 64 64" enable-background="new 0 0 64 64" xml:space="preserve">
<g id="surface1">
	<path fill="#2A8AA1" d="M32,8C18.766,8,8,18.766,8,32s10.766,24,24,24s24-10.766,24-24S45.234,8,32,8z M32,12
		c3.938,0,7.594,1.172,10.688,3.125l-1.625,0.188l0.375,4l-2.125-0.938l-1.75,1.5L37.875,24l4.313-1.375l5.375,1.75l-1.375,2.5
		l-3.25-2l-3.5,0.5L36,27.938l-1.938,6l3.875,3.188c0,0,3.977-0.688,4.188-0.688s1.688,3.625,1.688,3.625l-3.188,10
		C38.023,51.305,35.086,52,32,52c-0.633,0-1.258-0.07-1.875-0.125l-2.188-3.813l2.125-8L22,34h-7.438l-1.938-3.938L18,25.813L26,22
		l-1.188-5.313l3.438-0.75l1.625,2.25l6-1.125l-1.063-4.625l-4.438-0.313C30.906,12.086,31.453,12,32,12z M29.75,12.125
		l-3.125,1.313l-1.5-0.25C26.602,12.648,28.133,12.305,29.75,12.125z M12.125,33.563l1.938,2.25v4.125l3.75,4.125h2.313l5.688,7
		C18.266,48.617,12.758,41.781,12.125,33.563z"/>
</g>
</svg>
