<?xml version="1.0" encoding="utf-8"?>
<!-- Generator: Adobe Illustrator 15.1.0, SVG Export Plug-In . SVG Version: 6.00 Build 0)  -->
<!DOCTYPE svg PUBLIC "-//W3C//DTD SVG 1.1//EN" "http://www.w3.org/Graphics/SVG/1.1/DTD/svg11.dtd">
<svg class="webicon" xmlns="http://www.w3.org/2000/svg" xmlns:xlink="http://www.w3.org/1999/xlink" version="1.1" x="0px" y="0px" width="50px" height="50px" viewBox="0 0 48 48" enable-background="new 0 0 48 48" xml:space="preserve">
<g>
	<path d="M17.388,18.564L4.893,12.764c-1.19-0.595-1.19-2.231,0-2.826l12.495-5.653c0.892-0.447,2.083-0.447,2.975,0l12.347,5.653   c1.189,0.595,1.189,2.231,0,2.826l-12.347,5.801C19.471,19.012,18.28,19.012,17.388,18.564z"/>
</g>
<g>
	<path d="M18.875,14.4c0.148,0,0.148,0,0.298,0l9.519,4.462l-9.519,4.463c-0.149,0-0.149,0-0.298,0s-0.148,0-0.297,0l-9.52-4.463   l9.52-4.462C18.727,14.4,18.727,14.4,18.875,14.4 M18.875,11.425c-0.446,0-1.041,0.149-1.487,0.297L5.041,17.375   c-1.189,0.595-1.189,2.231,0,2.826l12.347,5.653c0.446,0.147,1.042,0.297,1.487,0.297s1.042-0.149,1.487-0.297l12.347-5.653   c1.189-0.595,1.189-2.231,0-2.826l-12.347-5.653C19.917,11.574,19.321,11.425,18.875,11.425L18.875,11.425z"/>
</g>
<g>
	<path fill="none" d="M32.561,27.787L24.668,31.4v1.674l4.295,0.001v4.292l4.293,0.001v-4.293h4.295V28.78h-4.295v-1.476   C33.075,27.496,32.855,27.669,32.561,27.787z"/>
	<path fill="none" d="M33.256,25.196v-0.709h-1.415l1.018,0.475C33.012,25.02,33.143,25.1,33.256,25.196z"/>
	<path d="M18.64,30.762c-0.021,0-0.031,0-0.062,0l-9.52-4.461l6.098-2.826l-3.57-1.637l-6.693,3.124c-1.19,0.595-1.19,2.23,0,2.825   l12.346,5.652c0.446,0.149,1.041,0.298,1.488,0.298c0.068,0,0.152-0.022,0.226-0.028c-0.204-0.895-0.321-1.822-0.321-2.779   C18.631,30.873,18.639,30.818,18.64,30.762z"/>
	<path d="M31.109,18.449c-6.834,0-12.379,5.499-12.47,12.313c0.079,0,0.118,0,0.235,0c0.148,0,0.148,0,0.298,0l9.519-4.461   l-6.097-2.826l3.571-1.637l5.676,2.649h1.415v0.709c0.592,0.504,0.612,1.458,0,2.108v1.476h4.295v4.295h-4.295v4.293l-4.293-0.001   v-4.292l-4.295-0.001V31.4l-4.453,2.039c-0.38,0.127-0.852,0.234-1.263,0.27c1.265,5.553,6.223,9.701,12.157,9.701   c6.892,0,12.479-5.587,12.479-12.48C43.589,24.037,38.001,18.449,31.109,18.449z"/>
	<path d="M33.256,25.196v2.108C33.868,26.654,33.848,25.7,33.256,25.196z"/>
	<path d="M24.668,31.4v-2.621h4.295v-4.292l2.878,0l-5.676-2.649l-3.571,1.637l6.097,2.826l-9.519,4.461c-0.149,0-0.149,0-0.298,0   c-0.118,0-0.156,0-0.235,0c-0.001,0.057-0.009,0.111-0.009,0.168c0,0.957,0.118,1.885,0.321,2.779   c0.411-0.035,0.883-0.143,1.263-0.27L24.668,31.4z"/>
</g>
</svg>
