<?xml version="1.0" encoding="utf-8"?>
<!-- Generator: Adobe Illustrator 15.1.0, SVG Export Plug-In . SVG Version: 6.00 Build 0)  -->
<!DOCTYPE svg PUBLIC "-//W3C//DTD SVG 1.1//EN" "http://www.w3.org/Graphics/SVG/1.1/DTD/svg11.dtd">
<svg class="webicon" version="1.1" xmlns="http://www.w3.org/2000/svg" xmlns:xlink="http://www.w3.org/1999/xlink" x="0px" y="0px"
	 width="512px" height="512px" viewBox="0 0 512 512" enable-background="new 0 0 512 512" xml:space="preserve">
<g>
	<g>
		<path d="M303.02,78.369c0.654,1.741,0.88,3.221,0.657,4.418c-0.221,1.189,0.54,2.176,2.284,2.936
			c1.744,0.759,2.614,1.361,2.614,1.792c0,0.435,1.25,0.763,3.756,0.978c2.505,0.219,3.755,0.329,3.755,0.329h4.243h3.592h94.041
			c14.366,0,26.667,5.111,36.899,15.35c10.23,10.231,15.345,22.528,15.345,36.894v229.879c0,14.367-5.113,26.663-15.345,36.895
			c-10.232,10.232-22.533,15.351-36.899,15.351H313.473c-2.83,0-5.056,0.702-6.692,2.12c-1.63,1.415-2.717,3.538-3.263,6.368
			c-0.545,2.829-0.873,5.385-0.982,7.671c-0.108,2.283-0.056,5.17,0.164,8.653c0.216,3.48,0.325,5.657,0.325,6.532
			c0,2.829,1.035,5.273,3.102,7.346c2.068,2.063,4.517,3.099,7.346,3.099h104.49c25.902,0,48.053-9.197,66.449-27.592
			C502.803,418.992,512,396.845,512,370.94V141.066c0-25.902-9.197-48.056-27.589-66.442
			c-18.396-18.403-40.547-27.601-66.449-27.601H313.469c-2.831,0-5.058,0.711-6.693,2.12c-1.63,1.417-2.716,3.538-3.263,6.371
			c-0.545,2.826-0.873,5.394-0.982,7.671c-0.107,2.286-0.055,5.167,0.164,8.65C302.913,75.321,303.02,77.496,303.02,78.369z"/>
		<path d="M6.204,270.695l177.632,177.637c4.133,4.131,9.032,6.203,14.692,6.203s10.56-2.072,14.698-6.203
			c4.137-4.137,6.203-9.04,6.203-14.696v-94.041h146.285c5.663,0,10.56-2.072,14.696-6.203c4.137-4.137,6.203-9.037,6.203-14.696
			v-125.39c0-5.659-2.066-10.559-6.203-14.693c-4.142-4.129-9.037-6.206-14.696-6.206H219.428v-94.04
			c0-5.656-2.066-10.56-6.203-14.693c-4.137-4.137-9.036-6.208-14.697-6.208c-5.659,0-10.559,2.071-14.693,6.208L6.204,241.301
			C2.067,245.441,0,250.333,0,255.994C0,261.654,2.067,266.558,6.204,270.695z"/>
	</g>
</g>
</svg>
