<?xml version="1.0" encoding="utf-8"?>
<!-- Generator: Adobe Illustrator 15.1.0, SVG Export Plug-In . SVG Version: 6.00 Build 0)  -->
<!DOCTYPE svg PUBLIC "-//W3C//DTD SVG 1.1//EN" "http://www.w3.org/Graphics/SVG/1.1/DTD/svg11.dtd">
<svg version="1.1" xmlns="http://www.w3.org/2000/svg" xmlns:xlink="http://www.w3.org/1999/xlink" x="0px" y="0px"
	 width="50px" height="50px" viewBox="0 0 50 50" enable-background="new 0 0 50 50" xml:space="preserve">
<g id="surface1">
	<path d="M37.5,4.167h-25c-2.295,0-4.167,1.871-4.167,4.166V31.25c0,1.311,0.626,2.539,1.668,3.337L25,45.833l14.998-11.246
		c1.042-0.798,1.668-2.026,1.668-3.337V8.333C41.666,6.038,39.795,4.167,37.5,4.167z"/>
</g>
<g id="surface1_1_">
	<path fill="#FFFFFF" d="M21.5,8.667c-4.548,0-8.167,3.617-8.167,8.167c0,4.548,3.619,8.167,8.167,8.167
		c2.01,0,3.837-0.716,5.25-1.896l0.583,0.583v0.948L34.699,32l1.968-1.971l-7.365-7.364h-1.021l-0.546-0.546
		c1.199-1.422,1.933-3.259,1.933-5.287C29.666,12.284,26.049,8.667,21.5,8.667z M21.5,11c3.268,0,5.833,2.565,5.833,5.833
		c0,3.268-2.565,5.833-5.833,5.833s-5.833-2.565-5.833-5.833C15.667,13.565,18.233,11,21.5,11z"/>
</g>
</svg>
