<?xml version="1.0" encoding="utf-8"?>
<!-- Generator: Adobe Illustrator 18.0.0, SVG Export Plug-In . SVG Version: 6.00 Build 0)  -->
<!DOCTYPE svg PUBLIC "-//W3C//DTD SVG 1.0//EN" "http://www.w3.org/TR/2001/REC-SVG-20010904/DTD/svg10.dtd">
<svg xmlns="http://www.w3.org/2000/svg" xmlns:xlink="http://www.w3.org/1999/xlink" version="1.0" x="0px" y="0px" viewBox="0 0 24 24" enable-background="new 0 0 24 24" xml:space="preserve" width="50px" height="50px">
<path d="M18,2c-2.2,0-4,1.8-4,4c0,2.2,4,7,4,7s4-4.8,4-7C22,3.8,20.2,2,18,2z M18,7.5c-0.8,0-1.5-0.7-1.5-1.5c0-0.8,0.7-1.5,1.5-1.5  s1.5,0.7,1.5,1.5C19.5,6.8,18.8,7.5,18,7.5z"/>
<path d="M20.3,13.4c-0.4,2.2-1.6,4.1-3.3,5.4c-0.1-0.3-0.2-0.7-0.3-1c-0.1-0.4-0.2-0.8-0.4-1.2c-0.1-0.4-0.2-0.8-0.4-1.1  c-0.1-0.1-0.3-0.2-0.5-0.3c-0.7-0.2-1.6,0.1-2.1-0.6c-0.2-0.3-0.2-0.6-0.1-1c0.2-0.3,0.3-0.6,0.5-0.9c0.2-0.4,0.5-0.9,0.6-1.4  c0,0,0,0,0,0c-0.8-1.2-1.6-2.6-2-3.9c0,0-0.1,0-0.1,0c-0.1,0-0.1,0-0.2-0.1c-0.2-0.2-0.3-0.7-0.2-1c0-0.5,0.3-0.8,0.2-1.3  c0-0.1-0.1-0.9-0.1-0.9c-0.3,0-0.8,0-0.7-0.5c0,0,0,0,0-0.1c0.3,0,0.5,0,0.8,0c0.2,0,0.3,0,0.5,0c0.2-0.6,0.6-1.1,0.9-1.5  C13,2,12.5,2,12,2C6.5,2,2,6.5,2,12c0,5.5,4.5,10,10,10c5.5,0,10-4.5,10-10c0-0.3,0-0.6,0-1C21.4,11.9,20.8,12.7,20.3,13.4z   M11.8,17.6c-0.1,0.3-0.2,0.7-0.4,0.9c-0.2,0.2-0.4,0.3-0.6,0.4c-0.4,0.2-0.6,0.6-0.8,0.9c0,0-0.1,0.2-0.2,0.3  c-0.8-0.2-1.5-0.5-2.2-1c0-0.1,0-0.2,0-0.2c-0.1-0.4-0.2-0.7-0.3-1c-0.2-0.5-0.5-1.1-0.6-1.6c0-0.5,0.1-1-0.2-1.4  c-0.3-0.5-1.1-0.5-1.6-0.8c-0.4-0.4-0.9-0.8-1.3-1.3c0-0.2,0-0.5,0-0.8c0-2.7,1.3-5.1,3.3-6.7C7.6,5.1,8.4,5,9,5.2  c0.3,0.1,0.6,0.3,0.8,0.5c0.2,0.2,0.5,0.5,0.5,0.8c0,0.1,0,0.2-0.1,0.2c-0.1,0.1-0.2,0.1-0.3,0.1c-0.3,0-0.6,0-0.8-0.1  C9,6.6,8.8,6.4,8.6,6.3C8.1,6.1,7.2,7.4,7.1,7.8C7,8.1,7,8.8,7.5,8.9c0.3,0,1-0.6,1.2-0.8C8.9,8,9,7.9,9.2,7.8  c0.8-0.1,1.4,0.6,1.6,1.3c0.2,0.8-1.2,1.4-1.8,1.6c-0.2,0.1-0.3-0.1-0.5,0c-0.5,0.2-1.1,0.9-1.1,1.4c0,0.5-0.1,1-0.2,1.5  c-0.1,0-0.2-0.1-0.2-0.1c0-0.1,0-0.2,0-0.2c0-0.3-0.1-0.6-0.4-0.8c-0.1,0-0.1-0.1-0.2-0.1c-0.3-0.1-0.6-0.4-0.9-0.1  c-0.2,0.2-0.4,0.5-0.4,0.8c0,0.1,0,0.2,0.1,0.3c0.2,0.1,0.4,0,0.6,0c0.1,0,0.2,0.2,0.3,0.3c0.2,0.3,0.3,0.8,0.7,0.8  c0.2,0,0.5,0,0.7,0c0.4,0,0.8,0,1.3,0c0.3,0.1,0.8,0.2,1,0.4c0.1,0.2,0.1,0.4,0.2,0.6c0.4,0.5,1.1,0.5,1.7,0.7  c0.2,0.1,0.3,0.2,0.3,0.4C12,16.9,11.9,17.3,11.8,17.6z"/>
</svg>
