<?xml version="1.0" encoding="iso-8859-1"?>
<!-- Generator: Adobe Illustrator 19.2.0, SVG Export Plug-In . SVG Version: 6.00 Build 0)  -->
<svg class="webicon" xmlns="http://www.w3.org/2000/svg" xmlns:xlink="http://www.w3.org/1999/xlink" version="1.1" x="0px" y="0px" viewBox="0 0 24 24" style="enable-background:new 0 0 24 24;" xml:space="preserve" width="50px" height="50px">
<g id="XMLID_3_">
	<g id="XMLID_4_">
		<path id="XMLID_5_" d="M9,4c2.757,0,5,2.243,5,5s-2.243,5-5,5s-5-2.243-5-5S6.243,4,9,4 M9,2C5.134,2,2,5.134,2,9s3.134,7,7,7    s7-3.134,7-7S12.866,2,9,2L9,2z"/>
	</g>
</g>
<g id="XMLID_2_">
	<polygon points="22,20.286 20.286,22 13.994,15.708 13.994,13.994 15.708,13.994  "/>
	<rect x="13.817" y="12.604" transform="matrix(0.7071 -0.7071 0.7071 0.7071 -5.9741 14.4227)" width="1.212" height="3.637"/>
</g>
<rect id="XMLID_4225_" x="8" y="6" width="2" height="6"/>
<rect x="6" y="8" width="6" height="2"/>
</svg>
