<?xml version="1.0"?>
<svg class="webicon" xmlns="http://www.w3.org/2000/svg" xmlns:xlink="http://www.w3.org/1999/xlink" version="1.1" x="0px" y="0px" width="50px" height="50px" viewBox="0 0 512 512" enable-background="new 0 0 512 512" xml:space="preserve">
<path  d="M192,42.666c-82.475,0-149.333,66.859-149.333,149.334S109.525,341.333,192,341.333&#10;&#9;c36.747,0,69.986-13.32,96-35.333l10.666,10.666v18.667l134.001,134l36.666-36.667l-133.999-134h-18.668L306,288&#10;&#9;c22.014-26.015,35.334-59.253,35.334-96C341.334,109.526,274.475,42.666,192,42.666z M192,85.333&#10;&#9;c58.816,0,106.666,47.851,106.666,106.667c0,58.815-47.85,106.666-106.666,106.666S85.333,250.816,85.333,192&#10;&#9;C85.333,133.184,133.184,85.333,192,85.333z"/>
<polyline fill="none" stroke="#666666" stroke-width="16" stroke-miterlimit="10" points="220.133,247.533 165.099,192.5 &#10;&#9;220.133,137.467 "/>
</svg>
